<svg width="80" height="24" viewBox="0 0 80 24" fill="none" xmlns="http://www.w3.org/2000/svg">
<g clip-path="url(#clip0_448_14867)">
<path d="M72.5333 11.6444H69.7778C68 11.6444 67.0222 12.9778 67.0222 15.2889V23.5556H61.6889V11.6444H59.4667C57.6889 11.6444 56.7111 12.9778 56.7111 15.2889V23.5556H51.3778V7.2H56.7111V9.68889C57.6 7.73333 58.7556 7.2 60.5333 7.2H67.0222V9.68889C67.9111 7.73333 69.0667 7.2 70.8444 7.2H72.6222L72.5333 11.6444ZM50.1333 16.6222H39.1111C39.3778 18.4889 40.5333 19.4667 42.4 19.4667C43.8222 19.4667 44.8 18.8444 45.1556 17.8667L49.8667 19.2C48.7111 22.0444 45.8667 23.7333 42.4 23.7333C36.6222 23.7333 33.9556 19.2 33.9556 15.2889C33.9556 11.4667 36.2667 6.93333 42.0444 6.93333C48.1778 6.93333 50.2222 11.5556 50.2222 15.0222C50.2222 15.8222 50.2222 16.2667 50.1333 16.6222ZM45.0667 13.5111C44.9778 12.0889 43.9111 10.8444 42.1333 10.8444C40.4445 10.8444 39.4667 11.5556 39.1111 13.5111H45.0667ZM24.7111 23.5556H29.3333L35.2 7.28889H29.8667L27.0222 16.8L24.1778 7.2H18.8444L24.7111 23.5556ZM3.02222 23.5556H8.26667V11.6444H13.3333V23.5556H18.5778V7.2H8.26667V6.22222C8.26667 5.15556 9.06667 4.44444 10.2222 4.44444H13.3333V0H9.42222C5.6 0 3.02222 2.4 3.02222 5.86667V7.2H0V11.6444H3.02222V23.5556Z" fill="white"/>
<path d="M75.9119 23.7331C77.6897 23.7331 79.2008 22.2219 79.2008 20.4442C79.2008 18.6664 77.6897 17.1553 75.9119 17.1553C74.1342 17.1553 72.623 18.6664 72.623 20.4442C72.623 22.2219 74.1342 23.7331 75.9119 23.7331Z" fill="#1DBF73"/>
</g>
<defs>
<clipPath id="clip0_448_14867">
<rect width="80" height="23.7333" fill="white"/>
</clipPath>
</defs>
</svg>
