<svg width="133" height="32" viewBox="0 0 133 32" fill="none" xmlns="http://www.w3.org/2000/svg">
<path d="M25.2724 0L28.2025 4.10995L43.0317 0M9.86692 32L17.8897 24.1592L13.0609 18.9786M24.0591 0L19.7733 3.8673L26.9831 4.13725M7.39185 0L8.9327 3.1545L17.4195 3.68227M11.9355 16.364L18.2051 4.66806L0 3.68531M12.6635 17.1041L18.5843 23.4646L25.1177 17.0616L27.1439 5.13516L19.1818 4.72872" fill="#29B2FE"/>
<path d="M37.8028 14.9991H36.18L34.7575 23.9743C34.7211 24.2108 34.4966 24.4019 34.2631 24.4019H31.0145C30.7779 24.4019 30.6172 24.2108 30.6536 23.9743L32.6464 11.3866C33.1499 8.20477 34.7575 7.49805 36.9595 7.49805C37.642 7.49805 38.3609 7.56174 38.919 7.6679C39.1677 7.71037 39.3376 7.859 39.2981 8.09558L38.9766 10.1278C38.9402 10.3614 38.7188 10.5343 38.464 10.5343H37.5662C37.0323 10.5343 36.8473 10.7466 36.7472 11.3896L36.6562 11.9659H38.279C38.5156 11.9659 38.6763 12.157 38.6399 12.3936L38.2941 14.5744C38.2547 14.811 38.0333 15.0021 37.7997 15.0021L37.8028 14.9991ZM45.9105 15.1477H45.6132C44.6941 15.1477 43.7994 15.2751 43.0775 15.6391L41.7641 23.9318C41.7277 24.1684 41.5184 24.4019 41.2606 24.4019H38.0545C37.7967 24.4019 37.6208 24.1684 37.6602 23.9318L39.4862 12.3936C39.5226 12.157 39.6833 11.9659 39.9806 11.9659H43.0562C43.3565 11.9659 43.4657 12.0721 43.4172 12.3936L43.3353 12.9062C44.4545 11.9022 45.2432 11.7961 46.3745 11.7961C46.7385 11.7961 46.787 11.881 46.7324 12.2237L46.3199 14.8292C46.2805 15.0871 46.1834 15.1507 45.9074 15.1507L45.9105 15.1477ZM56.6449 19.3365H49.9992L49.9931 19.379C49.8141 20.5104 50.1721 21.2171 51.7311 21.2171C52.8625 21.2171 54.9736 21.1109 55.8168 21.0472C56.1626 21.026 56.2809 21.0897 56.2293 21.4112L55.926 23.3343C55.8714 23.677 55.7622 23.8256 55.4043 23.9318C53.9666 24.3807 52.4591 24.5961 50.6634 24.5961C47.7789 24.5961 45.3493 23.0795 45.9954 18.9968L46.2198 17.5864C46.8143 13.8253 49.3197 11.7748 52.8231 11.7748C56.563 11.7748 57.9158 14.1468 57.3728 17.5864L57.1696 18.8694C57.1241 19.1454 56.9027 19.3396 56.6449 19.3396V19.3365ZM53.5298 17.0071C53.733 15.724 53.3417 14.9566 52.2741 14.9566C51.2064 14.9566 50.5724 15.7271 50.3692 17.0071L50.3601 17.0707H53.5207L53.5298 17.0071ZM68.4712 19.3365H61.8255L61.8195 19.379C61.6405 20.5104 61.9984 21.2171 63.5575 21.2171C64.6888 21.2171 66.7999 21.1109 67.6432 21.0472C67.9889 21.026 68.1072 21.0897 68.0557 21.4112L67.7523 23.3343C67.6977 23.677 67.5886 23.8256 67.2306 23.9318C65.7929 24.3807 64.2854 24.5961 62.4898 24.5961C59.6052 24.5961 57.1757 23.0795 57.8217 18.9968L58.0462 17.5864C58.6407 13.8253 61.1461 11.7748 64.6494 11.7748C68.3893 11.7748 69.7421 14.1468 69.1992 17.5864L68.9959 18.8694C68.9504 19.1454 68.729 19.3396 68.4712 19.3396V19.3365ZM65.3561 17.0071C65.5594 15.724 65.1681 14.9566 64.1004 14.9566C63.0327 14.9566 62.3958 15.7271 62.1956 17.0071L62.1865 17.0707H65.347L65.3561 17.0071ZM72.8086 24.4019H69.5813C69.3448 24.4019 69.1476 24.1684 69.187 23.9318L71.6621 8.31094C71.6985 8.07738 71.9654 7.88326 72.199 7.88326H75.4263C75.6629 7.88326 75.8236 8.07435 75.7872 8.31094L73.3122 23.9318C73.2758 24.1653 73.0452 24.4019 72.8117 24.4019H72.8086ZM84.1649 24.4019H81.1954C80.9618 24.4019 80.798 24.2108 80.8344 23.9743L80.9072 23.5253C80.0003 24.1229 78.8568 24.593 77.683 24.593C75.9965 24.593 74.1766 23.6527 74.6346 20.7682L74.674 20.5104C75.0805 17.9473 77.1704 17.0283 80.7374 17.0283H81.6564L81.7535 16.4095C81.9203 15.3631 81.6079 15.172 80.5402 15.172C79.3421 15.172 77.4039 15.2781 76.7973 15.3206C76.4303 15.3418 76.3544 15.1507 76.3939 14.8929L76.7214 12.8213C76.773 12.4998 76.9611 12.3936 77.231 12.3087C77.9711 12.0963 79.8547 11.7961 81.2227 11.7961C84.3195 11.7961 86.4094 12.9092 85.8543 16.4125L84.6562 23.9773C84.6198 24.2139 84.3954 24.405 84.1618 24.405L84.1649 24.4019ZM81.435 19.2516H80.3885C79.3209 19.2516 78.8386 19.5943 78.696 20.4891L78.6627 20.7045C78.5474 21.4325 79.0054 21.6448 79.603 21.6448C80.1156 21.6448 80.7161 21.4931 81.1074 21.3233L81.435 19.2486V19.2516ZM96.5038 24.4019H93.2977C93.0399 24.4019 92.864 24.1684 92.9034 23.9318L94.05 16.6886C94.2289 15.5572 93.9226 15.1932 92.9611 15.1932C92.4697 15.1932 91.8206 15.3843 91.2868 15.6421L89.9734 23.9348C89.937 24.1714 89.7277 24.405 89.4699 24.405H86.2638C86.006 24.405 85.8301 24.1714 85.8695 23.9348L87.6955 12.3966C87.7319 12.16 87.9563 11.9689 88.1899 11.9689H91.1594C91.3959 11.9689 91.5567 12.16 91.5203 12.3966L91.4414 12.888C92.7093 12.0326 93.9438 11.7991 95.1389 11.7991C98.4936 11.7991 98.5482 14.1498 98.1448 16.6916L96.9982 23.9379C96.9618 24.1744 96.7525 24.408 96.4947 24.408L96.5038 24.4019ZM105.986 24.2503C105.233 24.4201 104.266 24.593 103.004 24.593C99.7341 24.593 98.2297 22.5001 98.7848 18.9938L99.0396 17.3923C99.5916 13.9102 101.766 11.7718 105.036 11.7718C106.298 11.7718 107.335 11.9629 107.909 12.1115C108.175 12.1752 108.309 12.2844 108.263 12.5604L107.881 14.9748C107.842 15.2326 107.681 15.4237 107.369 15.3813C106.653 15.3176 105.982 15.2326 104.936 15.2326C104.017 15.2326 103.392 15.8089 103.14 17.3923L102.886 18.9938C102.634 20.5741 103.083 21.1322 104.002 21.1322C105.048 21.1322 105.74 21.0897 106.48 21.0048C106.808 20.9623 106.908 21.1322 106.865 21.4112L106.486 23.8044C106.44 24.0835 106.274 24.1896 105.986 24.2533V24.2503ZM118.525 19.3365H111.879L111.873 19.379C111.694 20.5104 112.052 21.2171 113.611 21.2171C114.742 21.2171 116.853 21.1109 117.697 21.0472C118.042 21.026 118.161 21.0897 118.109 21.4112L117.803 23.3343C117.748 23.677 117.639 23.8256 117.281 23.9318C115.843 24.3807 114.336 24.5961 112.54 24.5961C109.656 24.5961 107.226 23.0795 107.872 18.9968L108.097 17.5864C108.691 13.8253 111.197 11.7748 114.7 11.7748C118.44 11.7748 119.793 14.1468 119.25 17.5864L119.046 18.8694C119.001 19.1454 118.779 19.3396 118.522 19.3396L118.525 19.3365ZM115.41 17.0071C115.613 15.724 115.222 14.9566 114.154 14.9566C113.086 14.9566 112.452 15.7271 112.249 17.0071L112.24 17.0707H115.401L115.41 17.0071ZM125.246 11.9629L123.344 23.9288C123.308 24.1653 123.099 24.3989 122.841 24.3989H119.635C119.377 24.3989 119.201 24.1653 119.24 23.9288L120.502 16.0122L125.246 11.9629Z" fill="white"/>
<path d="M126.339 11.9629L125.684 16.0698L132.733 11.9629" fill="#29B2FE"/>
</svg>
