<svg width="98" height="33" viewBox="0 0 98 33" fill="none" xmlns="http://www.w3.org/2000/svg">
<g clip-path="url(#clip0_437_5692)">
<g clip-path="url(#clip1_437_5692)">
<g clip-path="url(#clip2_437_5692)">
<path d="M18.4853 11.6707C20.3342 11.6707 22.1841 11.6707 24.0352 11.6707C24.1752 11.6707 24.2545 11.6919 24.2745 11.848C24.6615 14.8714 24.2745 17.763 22.5208 20.3245C21.7255 21.5055 20.6982 22.5152 19.5003 23.2933C18.3025 24.0713 16.9587 24.6017 15.5494 24.8526C13.1797 25.3709 10.7098 25.2022 8.43414 24.3664C3.98388 22.6679 1.14086 19.5274 0.232107 14.8656C-0.12996 13.0881 -0.0677214 11.2512 0.413838 9.50172C0.895397 7.75228 1.78292 6.13879 3.00546 4.79037C4.88742 2.52414 7.53204 1.00931 10.4516 0.525244C12.2603 0.157932 14.1302 0.210959 15.9147 0.680337C17.6992 1.14972 19.3499 2.0227 20.7375 3.2307C20.8968 3.36568 21.0477 3.51022 21.2064 3.64584C21.2805 3.70982 21.2806 3.75338 21.2096 3.82311C20.4649 4.55455 19.723 5.28847 18.9838 6.02502C18.8768 6.1325 18.8277 6.06988 18.7529 6.00206C17.4921 4.83222 15.9029 4.06973 14.1956 3.81546C12.9666 3.60362 11.7063 3.65276 10.4979 3.95978C9.28946 4.26679 8.16047 4.82465 7.18548 5.59645C6.21073 6.33267 5.40484 7.2659 4.82119 8.33439C4.23755 9.40288 3.88948 10.5822 3.80005 11.7942C3.60162 13.397 3.851 15.0231 4.52093 16.4948C5.19087 17.9665 6.25562 19.2273 7.59891 20.1396C8.79325 20.9984 10.1975 21.5246 11.6661 21.6635C13.4588 21.8987 15.2817 21.6003 16.9032 20.8062C17.9667 20.3123 18.8857 19.5577 19.5735 18.6136C20.2613 17.6696 20.6952 16.5673 20.8342 15.4107C20.8845 15.0582 20.8858 15.0582 20.5311 15.0588C18.0218 15.0588 15.5126 15.0588 13.0037 15.0588C12.6748 15.0588 12.7103 15.1004 12.7096 14.7575C12.7096 13.8152 12.7173 12.8721 12.7032 11.9298C12.6999 11.7033 12.7754 11.6675 12.9818 11.6682C14.8135 11.6739 16.6503 11.6707 18.4853 11.6707Z" fill="#567EBF"/>
<path d="M76.138 17.3763C76.138 19.3654 76.138 21.3545 76.138 23.3437C76.1795 24.59 76.0474 25.8361 75.7453 27.0465C75.3304 28.7476 74.2669 30.223 72.7784 31.1626C71.7958 31.7525 70.6908 32.113 69.5471 32.2169C68.3094 32.3762 67.0515 32.2503 65.8708 31.8491C64.8866 31.5046 63.9832 30.9654 63.2154 30.2641C62.4476 29.5628 61.8315 28.714 61.4044 27.7693C61.3264 27.6075 61.3658 27.5455 61.5277 27.4796C62.4147 27.1226 63.2981 26.7576 64.1778 26.3844C64.3571 26.3083 64.4228 26.339 64.5092 26.5124C64.7877 27.166 65.2258 27.7407 65.7839 28.1846C66.342 28.6286 67.0026 28.9277 67.7064 29.0552C68.3569 29.1978 69.0322 29.1871 69.6778 29.0237C70.3234 28.8602 70.9213 28.5486 71.4234 28.1142C72.0812 27.4963 72.511 26.6775 72.6442 25.7887C72.7653 25.0112 72.8087 24.2237 72.7733 23.4377C72.7733 23.3897 72.7952 23.3238 72.7242 23.3098C72.6313 23.2874 72.5953 23.368 72.5463 23.4205C71.7902 24.2368 70.7864 24.7864 69.6871 24.986C67.9951 25.3299 66.2346 25.025 64.7602 24.1325C63.6788 23.5429 62.7529 22.7083 62.058 21.6967C61.3632 20.6851 60.919 19.525 60.7615 18.3109C60.4698 16.3824 60.8958 14.4146 61.9601 12.775C63.0244 11.1355 64.6541 9.93646 66.5448 9.40187C67.3566 9.15817 68.2102 9.08132 69.053 9.17603C69.8958 9.27074 70.7102 9.53507 71.4466 9.95274C71.8571 10.1836 72.2273 10.4787 72.543 10.8266C72.5926 10.8816 72.6384 10.9545 72.7261 10.9148C72.8028 10.8777 72.7669 10.7952 72.7675 10.7338C72.7714 10.437 72.7778 10.1394 72.7675 9.84326C72.7611 9.68204 72.7998 9.62644 72.9752 9.62772C73.9564 9.63668 74.9376 9.63668 75.9188 9.62772C76.1058 9.62772 76.138 9.69167 76.1374 9.85544C76.1348 12.3606 76.135 14.8676 76.138 17.3763ZM64.2301 17.002C64.1782 18.2554 64.5987 19.483 65.4096 20.4456C65.8283 20.9588 66.3646 21.3653 66.9738 21.6311C67.5831 21.8969 68.2476 22.0144 68.9119 21.9737C69.5762 21.9331 70.221 21.7354 70.7926 21.3973C71.3642 21.0591 71.8461 20.5902 72.198 20.0299C72.7477 19.197 73.048 18.2266 73.0639 17.2312C73.0797 16.2358 72.8105 15.2562 72.2876 14.4065C72.0004 13.8773 71.5984 13.418 71.1104 13.0618C70.6224 12.7056 70.0605 12.4614 69.4657 12.3469C68.8709 12.2324 68.2578 12.2505 67.6709 12.3999C67.084 12.5492 66.5379 12.826 66.0721 13.2103C65.4914 13.6591 65.0229 14.2346 64.7031 14.8923C64.3833 15.5499 64.2208 16.2719 64.2282 17.002H64.2301Z" fill="#567EBF"/>
<path d="M25.7843 16.9221C25.8203 15.3295 26.3334 13.7836 27.2583 12.4814C28.1832 11.1792 29.4781 10.1795 30.9778 9.60981C32.4775 9.04006 34.1142 8.92607 35.6795 9.28228C37.2448 9.6385 38.6678 10.4487 39.7671 11.6099C40.8664 12.7711 41.5924 14.2306 41.8525 15.8025C42.1126 17.3745 41.895 18.9876 41.2276 20.4364C40.5601 21.8853 39.4729 23.1043 38.1045 23.9381C36.7361 24.7719 35.1485 25.1828 33.5439 25.1184C32.4884 25.0964 31.4479 24.8657 30.4835 24.4398C29.5191 24.0138 28.6501 23.4012 27.9274 22.6379C27.2048 21.8745 26.6429 20.9757 26.2749 19.9943C25.9069 19.0128 25.7401 17.9683 25.7843 16.9221ZM38.4147 17.1325C38.4204 16.4933 38.309 15.8584 38.0857 15.2587C37.8303 14.5337 37.3889 13.8872 36.8049 13.3829C36.221 12.8786 35.5147 12.5339 34.7555 12.3827C33.9964 12.2315 33.2107 12.279 32.4757 12.5206C31.7408 12.7622 31.082 13.1895 30.5641 13.7604C29.729 14.7387 29.2877 15.9886 29.3252 17.2699C29.3627 18.5513 29.8763 19.7737 30.7673 20.7023C31.5408 21.4676 32.5742 21.9192 33.6656 21.9689C34.757 22.0186 35.8278 21.6627 36.6687 20.9709C37.2343 20.5043 37.6855 19.9163 37.988 19.2511C38.2905 18.586 38.4364 17.8618 38.4147 17.1325Z" fill="#EA4335"/>
<path d="M59.3996 17.1308C59.4058 18.7186 58.9366 20.2725 58.0515 21.5955C57.1664 22.9185 55.9052 23.9511 54.4279 24.5624C52.9505 25.1738 51.3234 25.3363 49.7528 25.0294C48.1822 24.7226 46.7388 23.9603 45.6055 22.8389C44.4722 21.7176 43.7 20.2877 43.3868 18.7306C43.0735 17.1735 43.2333 15.5593 43.846 14.0924C44.4587 12.6255 45.4966 11.3719 46.8283 10.4907C48.1599 9.6095 49.7252 9.14037 51.326 9.14251C52.389 9.12652 53.4445 9.32204 54.43 9.71759C55.4155 10.1131 56.3111 10.7006 57.0638 11.4453C57.8165 12.19 58.4109 13.0769 58.8122 14.0535C59.2134 15.03 59.4131 16.0764 59.3996 17.1308ZM51.1506 21.9743C51.7529 21.9926 52.3527 21.8898 52.9139 21.6721C53.4751 21.4544 53.986 21.1263 54.416 20.7076C55.1901 19.907 55.6859 18.8819 55.8309 17.7819C55.976 16.682 55.7627 15.5649 55.2223 14.5937C54.8813 13.9738 54.3952 13.4441 53.8049 13.0493C53.2145 12.6546 52.5372 12.4063 51.83 12.3253C51.1227 12.2443 50.4062 12.333 49.7407 12.5839C49.0752 12.8348 48.4802 13.2406 48.0058 13.7672C47.2973 14.6004 46.8692 15.6325 46.7815 16.7191C46.6938 17.8057 46.9509 18.8923 47.5168 19.8267C47.8886 20.4615 48.4174 20.9917 49.0532 21.3675C49.689 21.7433 50.4108 21.9521 51.1506 21.9743Z" fill="#F1511B"/>
<path d="M83.1601 16.9107C83.1504 14.8747 83.9297 12.9128 85.3368 11.4306C86.5727 10.1091 88.2697 9.3043 90.0826 9.17951C93.0997 8.93577 95.3196 10.2317 96.9114 12.7088C97.3364 13.4406 97.6951 14.2082 97.9834 15.0029C98.0479 15.1628 97.9311 15.1725 97.8395 15.2103L94.2999 16.6631C92.009 17.6014 89.7177 18.5396 87.4259 19.4779C87.2885 19.5336 87.2659 19.5789 87.3394 19.7126C87.7342 20.4977 88.3717 21.1371 89.1588 21.5374C89.9458 21.9377 90.8411 22.0779 91.7142 21.9377C92.3717 21.8678 93.0055 21.6544 93.5698 21.3126C94.1341 20.9708 94.6149 20.509 94.9778 19.9608C95.1068 19.7817 95.1829 19.7849 95.3532 19.9007C96.1368 20.433 96.9289 20.9526 97.7234 21.4682C97.8589 21.5558 97.8622 21.6127 97.7686 21.7362C96.9751 22.8823 95.8867 23.7968 94.6164 24.3846C93.3461 24.9725 91.9402 25.212 90.5449 25.0787C89.1482 25.0199 87.7951 24.58 86.6343 23.8072C85.4736 23.0345 84.5503 21.9589 83.9663 20.6991C83.3963 19.5183 83.1199 18.2193 83.1601 16.9107ZM86.679 16.8594C86.7036 16.8633 86.7126 16.8678 86.7184 16.8658C89.0644 15.9033 91.4104 14.9409 93.7568 13.9787C93.8613 13.9359 93.8678 13.8885 93.8214 13.7957C93.7148 13.5744 93.5718 13.3724 93.3983 13.1977C93.0085 12.8129 92.53 12.5281 92.0043 12.368C91.4785 12.2079 90.9215 12.1774 90.3811 12.279C89.3008 12.4503 88.3233 13.014 87.6389 13.8607C86.9545 14.7073 86.6128 15.7762 86.679 16.8594Z" fill="#EA4335"/>
<path d="M81.6763 12.9205C81.6763 16.7419 81.6779 20.5633 81.6809 24.3847C81.6809 24.5901 81.6266 24.6405 81.4228 24.6405C80.4193 24.6297 79.4163 24.6322 78.4128 24.6405C78.2554 24.6405 78.2148 24.6016 78.2148 24.4448C78.2187 16.7722 78.2187 9.0999 78.2148 1.42774C78.2148 1.26269 78.2535 1.21591 78.4238 1.21783C79.4274 1.22614 80.4309 1.22806 81.4338 1.21783C81.6325 1.21783 81.6803 1.26459 81.6796 1.46163C81.6741 5.28001 81.6729 9.09959 81.6763 12.9205Z" fill="#36A852"/>
</g>
</g>
</g>
<defs>
<clipPath id="clip0_437_5692">
<rect width="98" height="33" fill="white"/>
</clipPath>
<clipPath id="clip1_437_5692">
<rect width="98" height="33" fill="white"/>
</clipPath>
<clipPath id="clip2_437_5692">
<rect width="98" height="33" fill="white"/>
</clipPath>
</defs>
</svg>
