<svg width="106" height="32" viewBox="0 0 106 32" fill="none" xmlns="http://www.w3.org/2000/svg">
<path d="M68.3434 7.40085C63.7052 7.42312 59.9268 11.2354 59.9481 15.9821C59.9694 20.7288 63.7855 24.5052 68.4238 24.4839C73.062 24.4626 76.8414 20.6494 76.8191 15.9046C76.7968 11.1599 72.9816 7.38052 68.3415 7.40279L68.3434 7.40085ZM68.4073 21.0028C67.0923 21.0106 65.8287 20.4944 64.8943 19.5697C63.9598 18.645 63.4418 17.3852 63.4273 16.0702C63.4127 14.7552 63.9356 13.4916 64.8604 12.5571C65.7851 11.6227 67.0449 11.1047 68.3599 11.0901C69.6748 11.0756 70.9385 11.5985 71.8729 12.5233C72.8073 13.448 73.3254 14.7078 73.3399 16.0228C73.3535 18.6614 71.045 20.9893 68.4073 21.0028ZM87.1346 11.4242C84.7089 11.4358 82.8198 13.448 82.8314 15.8736L82.8701 23.993L79.1789 24.0104L79.1043 7.87533L82.7956 7.8579L82.8081 10.3881C82.8081 10.3881 84.3768 7.85112 87.5413 7.8366L88.5967 7.83079L88.6142 11.4155L87.1346 11.4242ZM50.3133 8.01283L53.1079 19.073L56.009 7.98572L59.7002 7.96926L55.1336 24.1353L51.5489 24.1518L48.6498 12.8825L45.8552 24.1779L42.2695 24.1944L37.4492 8.08158L41.0339 8.06512L44.2488 19.1233L46.8342 8.03801L50.3133 8.01283ZM99.3828 15.1648C101.905 13.6775 103.687 10.9265 103.672 7.763L99.9813 7.78043C99.9948 10.5227 97.789 12.7479 95.1532 12.7576L94.6255 12.7595L94.5674 0L90.8762 0.0174294L90.9895 23.9543L94.6787 23.9378L94.6439 16.3462L95.0651 16.3442C95.4873 16.3423 95.9104 16.5515 96.0179 16.8671L101.218 23.9068L105.541 23.8874L99.3828 15.1648Z" fill="white"/>
<path d="M28.9043 7.58719C24.8984 7.60656 21.852 10.2568 20.7123 14.4797C18.7999 11.536 17.3077 8.16915 16.4517 5.32617L12.2347 5.34554L12.287 16.5228C12.2916 17.5855 11.8741 18.6066 11.1262 19.3616C10.3783 20.1166 9.36119 20.5437 8.29848 20.5491C7.23577 20.5537 6.21471 20.1362 5.45972 19.3883C4.70473 18.6404 4.2776 17.6233 4.27222 16.5606L4.21896 5.3833L0 5.40267L0.0522895 16.58C0.0745609 21.2182 3.78031 24.8939 8.31591 24.8717C12.8515 24.8494 16.5253 21.1417 16.504 16.5025L16.4943 14.6046C17.3445 16.2866 18.4077 18.0741 19.5765 19.6515L16.9979 32.0004L21.3204 31.9811L23.1796 23.0086C24.8712 24.0563 26.7624 24.679 28.9856 24.6683C33.6258 24.6461 37.4052 20.8338 37.3809 15.9825C37.3633 13.7474 36.4622 11.61 34.8742 10.0369C33.2863 8.46383 31.1405 7.58283 28.9053 7.58623L28.9043 7.58719ZM28.9643 20.3467C27.2775 20.3545 25.5878 19.6244 24.2118 18.4701L24.6253 16.7823V16.6855C24.9352 14.8902 25.8667 11.8284 29.0311 11.8149C30.1469 11.813 31.2183 12.2519 32.012 13.0361C32.8058 13.8202 33.2577 14.8862 33.2695 16.0019C33.1746 18.4275 31.1808 20.3351 28.9653 20.3458L28.9643 20.3467Z" fill="#6FDA44"/>
</svg>
