<svg width="184" height="36" viewBox="0 0 184 36" fill="none" xmlns="http://www.w3.org/2000/svg">
<g clip-path="url(#clip0_458_6749)">
<path d="M43.4512 9.60547H52.0901C53.3717 9.60547 54.4597 9.83262 55.3587 10.2845C56.4753 10.8584 57.4222 11.81 58.2017 13.1443C58.9812 14.4785 59.3709 16.0566 59.3709 17.881C59.3709 19.3897 59.1366 20.7455 58.6704 21.9506C58.3165 22.8783 57.7713 23.6889 57.0372 24.3823C56.3032 25.0757 55.4065 25.597 54.3521 25.9437C53.5606 26.1995 52.5062 26.3286 51.1863 26.3286H43.4536V25.4798H45.0365C45.4358 25.4798 45.7131 25.4152 45.8685 25.2885C46.024 25.1594 46.1005 24.9609 46.1005 24.6884V11.2218C46.1005 10.9875 46.0168 10.801 45.8518 10.6623C45.6868 10.5236 45.4549 10.4543 45.1632 10.4543H43.456V9.60547H43.4512ZM49.5102 10.4543C49.1706 10.4543 48.9196 10.526 48.7594 10.6695C48.5992 10.813 48.5155 11.0282 48.5155 11.3151V24.6573C48.5155 24.9275 48.6087 25.1331 48.7976 25.2742C48.9865 25.4129 49.3069 25.4846 49.7588 25.4846H51.1839C52.4583 25.4846 53.5726 25.157 54.5314 24.5019C55.1579 24.0643 55.6313 23.4498 55.9565 22.6583C56.4012 21.5871 56.6236 20.1095 56.6236 18.2253C56.6236 15.4373 56.1382 13.3929 55.165 12.097C54.3353 11.0042 53.0848 10.4567 51.4111 10.4567H49.5125L49.5102 10.4543Z" fill="white"/>
<path d="M68.7592 9.25391H69.5172L75.514 24.552C75.7555 25.1689 76.248 25.4797 76.9965 25.4797H77.5153V26.3286H70.8442V25.4797H71.375C72.0685 25.4797 72.5586 25.4032 72.8455 25.2526C73.0416 25.1474 73.1397 24.9848 73.1397 24.7672C73.1397 24.6381 73.1133 24.5042 73.0607 24.3607L71.6763 20.81H65.0626L64.2855 22.8448C64.0823 23.3875 63.9794 23.8179 63.9794 24.1336C63.9794 24.5018 64.1516 24.8198 64.4935 25.0828C64.8355 25.3458 65.3352 25.4797 65.9927 25.4797H66.557V26.3286H60.498V25.4797C61.146 25.4797 61.6577 25.3387 62.0355 25.0565C62.4133 24.7744 62.76 24.2364 63.0756 23.4449L68.7592 9.2563V9.25391ZM68.4316 12.4771L65.4284 19.9277H71.3344L68.4316 12.4771Z" fill="white"/>
<path d="M77.131 9.60547H90.7099L91.0375 15.9251H90.258C89.7439 12.2093 88.4001 10.3515 86.2243 10.3515C85.7867 10.3515 85.4854 10.428 85.3228 10.5786C85.1602 10.7293 85.079 10.9779 85.079 11.3247V24.6884C85.079 24.9586 85.1579 25.1594 85.3157 25.2885C85.4735 25.4176 85.7341 25.4798 86.0952 25.4798H87.7785V26.3286H80.0123V25.4798H81.9347C82.1905 25.4798 82.3866 25.4152 82.5229 25.2885C82.6592 25.1594 82.7261 24.992 82.7261 24.7792V11.2242C82.7261 10.9373 82.6401 10.7221 82.4655 10.5739C82.291 10.428 82.0136 10.3539 81.6286 10.3539C80.5359 10.3539 79.6225 10.8703 78.8932 11.9033C78.2907 12.7545 77.8579 14.0959 77.5925 15.9275H76.7676L77.1286 9.60786L77.131 9.60547Z" fill="white"/>
<path d="M98.3705 9.25391H99.1285L105.125 24.552C105.367 25.1689 105.859 25.4797 106.608 25.4797H107.127V26.3286H100.456V25.4797H100.986C101.68 25.4797 102.17 25.4032 102.457 25.2526C102.653 25.1474 102.751 24.9848 102.751 24.7672C102.751 24.6381 102.725 24.5042 102.672 24.3607L101.288 20.81H94.6739L93.8968 22.8448C93.6936 23.3875 93.5908 23.8179 93.5908 24.1336C93.5908 24.5018 93.7629 24.8198 94.1049 25.0828C94.4468 25.3458 94.9465 25.4797 95.6041 25.4797H96.1684V26.3286H90.1094V25.4797C90.7574 25.4797 91.2691 25.3387 91.6468 25.0565C92.0246 24.7744 92.3713 24.2364 92.687 23.4449L98.3705 9.2563V9.25391ZM98.0406 12.4771L95.0374 19.9277H100.943L98.0406 12.4771Z" fill="white"/>
<path d="M112.949 9.60547H121.588C122.87 9.60547 123.958 9.83262 124.857 10.2845C125.973 10.8584 126.92 11.81 127.7 13.1443C128.479 14.4785 128.869 16.0566 128.869 17.881C128.869 19.3897 128.635 20.7455 128.168 21.9506C127.815 22.8783 127.269 23.6889 126.535 24.3823C125.801 25.0757 124.905 25.597 123.85 25.9437C123.059 26.1995 122.004 26.3286 120.684 26.3286H112.952V25.4798H114.535C114.934 25.4798 115.211 25.4152 115.367 25.2885C115.522 25.1594 115.599 24.9609 115.599 24.6884V11.2218C115.599 10.9875 115.515 10.801 115.35 10.6623C115.185 10.5236 114.955 10.4543 114.661 10.4543H112.954V9.60547H112.949ZM119.008 10.4543C118.669 10.4543 118.418 10.526 118.257 10.6695C118.097 10.813 118.014 11.0282 118.014 11.3151V24.6573C118.014 24.9275 118.107 25.1331 118.296 25.2742C118.485 25.4129 118.805 25.4846 119.257 25.4846H120.682C121.956 25.4846 123.071 25.157 124.029 24.5019C124.656 24.0643 125.129 23.4498 125.455 22.6583C125.899 21.5871 126.122 20.1095 126.122 18.2253C126.122 15.4373 125.636 13.3929 124.663 12.097C123.833 11.0042 122.583 10.4567 120.909 10.4567H119.011L119.008 10.4543Z" fill="white"/>
<path d="M139.034 9.25391C140.443 9.25391 141.765 9.62452 142.996 10.3681C144.228 11.1094 145.194 12.1471 145.892 13.4765C146.59 14.806 146.937 16.3052 146.937 17.9718C146.937 19.6383 146.585 21.1423 145.885 22.4837C145.184 23.8251 144.22 24.8724 142.996 25.6208C141.772 26.3716 140.474 26.747 139.101 26.747C137.729 26.747 136.5 26.3788 135.326 25.6447C134.149 24.9107 133.205 23.8586 132.495 22.4909C131.782 21.1232 131.426 19.6049 131.426 17.9407C131.426 16.2765 131.77 14.8155 132.461 13.4909C133.15 12.1686 134.094 11.1309 135.292 10.3825C136.49 9.6317 137.738 9.2563 139.034 9.2563V9.25391ZM139.213 10.1266C137.743 10.1266 136.552 10.7364 135.641 11.9582C134.73 13.18 134.274 15.1694 134.274 17.9287C134.274 20.92 134.74 22.9906 135.675 24.1359C136.61 25.2813 137.767 25.8551 139.147 25.8551C140.113 25.8551 140.959 25.5945 141.691 25.0756C142.422 24.5568 143.003 23.7295 143.439 22.5985C143.871 21.4675 144.089 19.9827 144.089 18.1439C144.089 16.1402 143.886 14.574 143.479 13.4455C143.073 12.3169 142.492 11.4848 141.738 10.942C140.985 10.3992 140.144 10.129 139.218 10.129L139.213 10.1266Z" fill="white"/>
<path d="M152.962 9.60547H160.355V10.4543H159.303C158.889 10.4543 158.593 10.5308 158.416 10.6815C158.239 10.8321 158.151 11.0497 158.151 11.3366V22.1801C158.151 23.017 157.947 23.7726 157.541 24.4469C157.134 25.1211 156.539 25.6567 155.755 26.0513C154.97 26.4458 154.086 26.6443 153.098 26.6443C151.757 26.6443 150.659 26.2497 149.808 25.4631C148.957 24.6764 148.531 23.7128 148.531 22.5747C148.531 21.7306 148.746 21.0563 149.177 20.5518C149.607 20.0473 150.133 19.7938 150.76 19.7938C151.271 19.7938 151.695 19.9588 152.027 20.2864C152.359 20.614 152.524 21.03 152.524 21.5345C152.524 21.9721 152.388 22.3403 152.118 22.6368C151.848 22.9357 151.534 23.084 151.181 23.084C151.044 23.084 150.855 23.0457 150.616 22.9716C150.413 22.9118 150.277 22.8807 150.21 22.8807C150.081 22.8807 149.98 22.9333 149.904 23.0385C149.82 23.1437 149.779 23.3015 149.779 23.5143C149.779 24.0786 150.064 24.5951 150.633 25.059C151.202 25.5228 151.9 25.7548 152.73 25.7548C153.672 25.7548 154.413 25.4296 154.956 24.7768C155.499 24.1241 155.771 23.2155 155.771 22.0462V11.339C155.771 11.0449 155.671 10.8249 155.473 10.6767C155.272 10.5284 154.932 10.4567 154.449 10.4567H152.969V9.60786L152.962 9.60547Z" fill="white"/>
<path d="M169.921 9.25391C171.329 9.25391 172.651 9.62452 173.883 10.3681C175.114 11.1094 176.08 12.1471 176.778 13.4765C177.477 14.806 177.823 16.3052 177.823 17.9718C177.823 19.6383 177.472 21.1423 176.771 22.4837C176.071 23.8251 175.107 24.8724 173.883 25.6208C172.659 26.3716 171.36 26.747 169.988 26.747C168.615 26.747 167.386 26.3788 166.212 25.6447C165.036 24.9107 164.091 23.8586 163.381 22.4909C162.669 21.1232 162.312 19.6049 162.312 17.9407C162.312 16.2765 162.657 14.8155 163.348 13.4909C164.036 12.1686 164.981 11.1309 166.179 10.3825C167.377 9.6317 168.625 9.2563 169.921 9.2563V9.25391ZM170.1 10.1266C168.63 10.1266 167.439 10.7364 166.528 11.9582C165.617 13.18 165.16 15.1694 165.16 17.9287C165.16 20.92 165.627 22.9906 166.561 24.1359C167.496 25.2813 168.654 25.8551 170.033 25.8551C170.999 25.8551 171.846 25.5945 172.577 25.0756C173.309 24.5568 173.89 23.7295 174.325 22.5985C174.758 21.4675 174.976 19.9827 174.976 18.1439C174.976 16.1402 174.772 14.574 174.366 13.4455C173.959 12.3169 173.378 11.4848 172.625 10.942C171.872 10.3992 171.03 10.129 170.105 10.129L170.1 10.1266Z" fill="white"/>
<path d="M182.29 23.8633C182.668 23.8633 182.988 23.9996 183.251 24.2698C183.514 24.54 183.648 24.8651 183.648 25.2429C183.648 25.6207 183.516 25.9674 183.251 26.2376C182.986 26.5078 182.663 26.6441 182.278 26.6441C181.893 26.6441 181.58 26.5078 181.312 26.2376C181.044 25.9674 180.91 25.6375 180.91 25.2549C180.91 24.8723 181.044 24.5423 181.312 24.2722C181.58 24.002 181.905 23.8657 182.29 23.8657V23.8633Z" fill="white"/>
<path d="M12.134 9.90096L16.0266 12.8635C15.7134 13.2628 15.4074 13.6669 15.0965 14.0686H15.0917C15.0463 14.126 15.0009 14.1858 14.9578 14.2431L16.4068 15.3526C16.7225 14.9437 17.0405 14.5372 17.3537 14.1284C17.3657 14.1188 17.3752 14.1069 17.3872 14.0973H17.3776C17.4111 14.0543 17.4446 14.0088 17.478 13.9658L18.9629 15.0944L20.0771 13.643L18.5851 12.5096C19.0777 11.8473 19.7998 10.8717 20.3019 10.1783C20.8518 9.42035 21.4018 8.66477 21.9398 7.89724C23.6183 5.50138 22.8914 2.33321 20.3401 0.893782C16.9855 -0.997557 12.6433 0.207544 10.7328 3.55505C9.47033 5.76918 10.1255 8.4974 12.1388 9.90096H12.134ZM12.2105 4.7195C12.892 3.33029 14.0158 2.45037 15.3572 2.06063C16.897 1.65414 18.2312 1.82391 19.4913 2.53406C21.0455 3.41158 21.4783 5.33161 20.4573 6.79734C19.6874 7.89963 18.8768 8.97561 18.1093 10.0779C18.0065 10.2261 17.5665 10.8143 17.1265 11.4002L12.9685 8.23916C11.9738 7.39989 11.6127 5.94373 12.2129 4.71711L12.2105 4.7195Z" fill="white"/>
<path d="M34.3234 11.4957C32.3125 9.36766 29.0606 9.42983 27.1406 11.6344C26.5261 12.3398 25.9259 13.0571 25.3234 13.7744C24.7304 14.4798 23.8816 15.5103 23.3603 16.144L21.5263 14.75L20.4121 16.2037L22.2078 17.569C22.2006 17.581 22.1887 17.5953 22.1815 17.6073C21.8228 18.0568 21.4666 18.5111 21.1103 18.963L22.5593 20.0749C22.6406 19.9721 22.7219 19.8669 22.8032 19.7664V19.7617C23.0877 19.3982 23.377 19.0396 23.6592 18.6761L27.6666 21.7247C27.7384 21.7821 27.8101 21.8371 27.8842 21.8897L28.0205 21.9925V21.9878C29.8521 23.2287 32.3603 23.0781 34.0556 21.4593C36.8436 18.7981 36.9607 14.2909 34.3162 11.4933L34.3234 11.4957ZM32.5779 20.302C31.4565 21.2465 29.8042 21.1796 28.7498 20.2375C28.6804 20.1753 28.6039 20.1179 28.525 20.0677L24.8212 17.251C25.3114 16.6485 25.8255 16.0172 25.9522 15.8738C26.8369 14.8624 27.6834 13.8151 28.5681 12.8036C29.7421 11.4575 31.7099 11.4144 32.9366 12.7104C33.9312 13.7601 34.4166 15.013 34.3951 16.6078C34.3425 18.0042 33.7591 19.3074 32.5755 20.302H32.5779Z" fill="white"/>
<path d="M24.4026 26.509L24.3882 26.4995C24.1659 26.2938 23.9196 26.1073 23.6542 25.94L20.1058 23.2333C20.1417 23.1544 20.1871 23.0755 20.2445 23.0013C20.6366 22.4968 21.0312 22.0043 21.4281 21.5069L19.9815 20.3975C19.6061 20.8709 19.2307 21.3443 18.8577 21.8202C18.8362 21.8393 18.8146 21.8608 18.7931 21.8775H18.8123C18.7525 21.9541 18.6903 22.0306 18.6305 22.1095L16.8994 20.7896L15.7684 22.2649L17.5043 23.5704C17.0357 24.1921 16.4451 24.9788 16.2873 25.1868C15.5556 26.148 14.8239 27.1116 14.1401 28.1063C12.5572 30.4041 13.1717 33.5268 15.5532 34.9806C18.9366 37.0441 23.4462 35.8701 25.3877 32.4246C26.5163 30.4232 25.9974 28.0035 24.4002 26.5138L24.4026 26.509ZM23.7498 31.5709C23.0182 32.8 21.9541 33.6034 20.4334 34.0218C19.0777 34.3589 17.6645 34.1605 16.3781 33.3021C15.0152 32.3887 14.6829 30.4902 15.6345 29.1703C16.4212 28.08 17.2365 27.0088 18.0184 25.9161C18.1212 25.7726 18.5421 25.2203 18.9629 24.6703L23.2716 27.915C24.2472 28.838 24.4863 30.3324 23.7474 31.5733L23.7498 31.5709Z" fill="white"/>
<path d="M14.3111 21.1654L15.4493 19.6805L13.9477 18.5352C13.9692 18.5089 13.9883 18.4826 14.0098 18.4563L14.0146 18.473C14.0266 18.4491 14.0409 18.4228 14.0553 18.3965C14.4689 17.8657 14.8802 17.3325 15.2915 16.7993L13.8449 15.6898C13.699 15.8787 13.5507 16.0676 13.4049 16.2589V16.2637C13.1299 16.6223 12.8526 16.981 12.5728 17.3372C12.5704 17.342 12.5656 17.3444 12.5632 17.3468C12.5632 17.3468 12.5369 17.3803 12.4963 17.4305L12.4867 17.4233C12.5106 17.397 12.5369 17.3755 12.5608 17.3468L12.3074 17.287L8.2067 14.1595L8.18996 14.1715C6.35601 12.9616 3.86451 13.0381 2.18598 14.6234C-0.688092 17.342 -0.738305 21.9998 2.08077 24.7854C4.06536 26.7461 7.24549 26.5859 9.0914 24.4961C9.89002 23.5899 10.6504 22.6502 11.4036 21.7057C11.5781 21.4881 12.2715 20.6345 12.776 20.0129L14.3063 21.1654H14.3111ZM10.2822 20.2018C9.40941 21.2251 8.57014 22.2748 7.69979 23.3006C6.64772 24.5439 4.7253 24.6826 3.51063 23.5779C2.36531 22.5378 1.8321 21.2132 1.8321 19.8168C1.87036 18.2387 2.394 17.0121 3.40782 16.0054C4.28295 15.1375 5.50957 14.9223 6.55208 15.3264L11.3151 18.9106C10.8417 19.5059 10.3874 20.0726 10.2798 20.1994L10.2822 20.2018Z" fill="white"/>
</g>
<defs>
<clipPath id="clip0_458_6749">
<rect width="183.646" height="36" fill="white"/>
</clipPath>
</defs>
</svg>
