<svg width="114" height="32" viewBox="0 0 114 32" fill="none" xmlns="http://www.w3.org/2000/svg">
<g clip-path="url(#clip0_458_6718)">
<path d="M0.00390625 0H18.4105L27.3778 15.5739L18.6926 32L0.00390625 0Z" fill="#FF640F"/>
<path d="M18.6944 31.9998H0.382812L9.54006 16.3223L18.6944 31.9998Z" fill="#FF5E1C"/>
<path d="M7.20703 20.3122L18.6932 31.9998L9.5388 16.3223L7.20703 20.3122Z" fill="#DC5018"/>
<path d="M51.6938 14.3331H43.4606L42.0356 22.5059H36.4336L40.3659 0.21582H55.9053L55.0388 5.04346H45.0727L44.2983 9.49973H52.5315L51.6966 14.3274L51.6938 14.3331Z" fill="white"/>
<path d="M83.4508 22.9377C80.5001 22.9377 78.4562 22.2987 77.3219 21.0176C76.5389 20.1108 76.1445 18.8413 76.1445 17.2091C76.1445 16.5067 76.2165 15.7553 76.3604 14.9493L77.63 7.83015C78.5598 2.61101 81.9135 0 87.6911 0C90.0834 0 91.8998 0.509536 93.1377 1.53149C94.3755 2.55344 94.9945 3.9525 94.9945 5.7258C94.9945 6.552 94.8764 7.37244 94.6375 8.18712C94.3986 9.0018 94.1683 9.60633 93.9409 9.99784L93.6012 10.6168H88.1229C88.8052 9.83375 89.1449 8.71968 89.1449 7.27456C89.1449 6.51169 88.9491 5.90716 88.5576 5.46384C88.1661 5.02051 87.5875 4.79885 86.8246 4.79885C84.7404 4.79885 83.5026 5.9561 83.1111 8.26484L82.0287 14.5175C81.925 15.0558 81.8732 15.5797 81.8732 16.095C81.8732 17.4566 82.6879 18.1389 84.3201 18.1389C86.2805 18.1389 87.458 17.0363 87.8495 14.8255H93.4198L93.2644 15.7236C92.4382 20.5311 89.1679 22.9349 83.4508 22.9349V22.9377Z" fill="white"/>
<path d="M106.423 22.503L106.61 17.6437H101.44L99.9227 22.503H94.0098L101.964 0.21582H112.18L112.304 22.503H106.423ZM105.153 5.6336L102.706 13.4954H106.763L107.102 5.6336H105.153Z" fill="white"/>
<path d="M63.8189 18.9017V15.0528H55.7815C55.6807 15.7235 55.6289 16.3511 55.6289 16.9326C55.6289 18.6051 56.0319 19.915 56.8351 20.865C58.0125 22.2467 60.0967 22.9376 63.0877 22.9376C66.0787 22.9376 68.4018 22.2467 70.0542 20.865C71.7038 19.4832 72.7775 17.3558 73.2727 14.4886L73.762 11.6904H71.033L63.8189 18.9045V18.9017Z" fill="#FF640F"/>
<path d="M65.4769 3.9928V7.84167H74.4269C74.519 7.22562 74.5708 6.64412 74.5708 6.09428C74.5708 2.03239 72.0836 0 67.112 0C61.3114 0 57.9289 2.76646 56.9588 8.29651L56.4492 11.2098H58.2657L65.4798 3.99568L65.4769 3.9928Z" fill="#FF640F"/>
<path d="M56.4505 11.2069L56.3555 11.751L73.7632 11.6906L73.8582 11.1465L56.4505 11.2069Z" fill="#FF640F"/>
<path d="M63.8183 18.9016L62.2148 15.0527H63.8183V18.9016Z" fill="#DC5018"/>
<path d="M65.4766 3.99316L66.9735 7.84491H65.4766V3.99316Z" fill="#DC5018"/>
<path d="M38.4792 30.7214C38.5253 30.4738 38.3957 30.2867 38.0906 30.1543L37.4515 29.9153C36.7088 29.6044 36.3576 29.1755 36.395 28.6286C36.4094 28.3752 36.4986 28.1507 36.6599 27.9549C36.8211 27.7592 37.0485 27.6066 37.3392 27.4943C37.63 27.3821 37.9466 27.3302 38.2835 27.3331C38.7498 27.3418 39.1269 27.4713 39.4119 27.7246C39.6998 27.978 39.8409 28.3148 39.8351 28.7379H38.8678C38.8794 28.5336 38.8304 28.3723 38.7239 28.2572C38.6174 28.142 38.4504 28.0845 38.2259 28.0787C38.0042 28.0758 37.8142 28.1219 37.6501 28.2198C37.486 28.3176 37.3911 28.453 37.3594 28.6257C37.3162 28.8531 37.4774 29.0316 37.843 29.164L38.2806 29.3194L38.531 29.4288C39.1816 29.7311 39.4868 30.1572 39.4436 30.707C39.4234 30.9747 39.3313 31.205 39.1701 31.4008C39.0089 31.5936 38.7872 31.7433 38.508 31.847C38.2288 31.9506 37.9207 31.9995 37.5868 31.9938C37.2442 31.988 36.9391 31.9189 36.6714 31.7923C36.4036 31.6627 36.2021 31.4814 36.0611 31.2482C35.9315 31.0294 35.8711 30.7818 35.8797 30.4997H36.8498C36.8182 30.9949 37.0773 31.2453 37.6213 31.254C37.8574 31.254 38.0532 31.205 38.2029 31.1071C38.3525 31.0093 38.4447 30.8797 38.4735 30.7185L38.4792 30.7214Z" fill="white" fill-opacity="0.63"/>
<path d="M41.9584 31.9334H40.9883L41.8231 27.3994H42.7932L41.9584 31.9334Z" fill="white" fill-opacity="0.63"/>
<path d="M45.973 27.3965L46.566 30.6754L48.3652 27.3965H49.6578L48.82 31.9305H47.847L48.086 30.6379L48.5552 28.6199L46.7071 31.9305H46.0421L45.3972 28.5048L45.0863 30.7387L44.8647 31.9305H43.8945L44.7322 27.3965H45.9787H45.973Z" fill="white" fill-opacity="0.63"/>
<path d="M51.9687 30.3357L51.6694 31.9334H50.6992L51.5369 27.3994H53.2267C53.7478 27.4023 54.1566 27.5376 54.456 27.8111C54.7554 28.0817 54.8849 28.4386 54.8475 28.8762C54.8129 29.3195 54.6143 29.6765 54.2573 29.9413C53.9004 30.2062 53.4398 30.3415 52.8842 30.3415H51.9716L51.9687 30.3357ZM52.104 29.5786L52.913 29.5844C53.1721 29.5844 53.3908 29.521 53.5607 29.3944C53.7334 29.2677 53.8342 29.095 53.8687 28.8791C53.9032 28.6632 53.8658 28.4905 53.7564 28.3609C53.647 28.2314 53.4916 28.1623 53.2814 28.1565H52.3689L52.104 29.5757V29.5786Z" fill="white" fill-opacity="0.63"/>
<path d="M57.1044 31.1821H59.1512L59.013 31.9334H55.9961L56.8338 27.3994H57.8039L57.1044 31.1849V31.1821Z" fill="white" fill-opacity="0.63"/>
<path d="M63.7943 29.9672H61.9461L61.7216 31.1821H63.895L63.7569 31.9334H60.6133L61.451 27.3994H64.5859L64.4449 28.1565H62.2829L62.0814 29.2389H63.9353L63.7972 29.9701L63.7943 29.9672Z" fill="white" fill-opacity="0.63"/>
<path d="M68.1138 30.7334C68.1369 30.3534 68.3758 30.0166 68.8335 29.7201L69.1588 29.5243L69.0264 29.2451C68.9112 28.9831 68.8623 28.7528 68.8767 28.5513C68.894 28.3124 68.9659 28.0993 69.0926 27.9122C69.2193 27.7251 69.3862 27.5812 69.5964 27.4804C69.8065 27.3796 70.034 27.3336 70.2815 27.3393C70.6068 27.348 70.8717 27.4487 71.0789 27.6416C71.2862 27.8345 71.3841 28.0792 71.3697 28.3699C71.3467 28.7614 71.0962 29.1069 70.6183 29.4034L70.2412 29.6366L70.863 30.5146C71.0473 30.2641 71.1595 29.9964 71.197 29.7114H71.9886C71.9454 30.2958 71.7324 30.7794 71.3495 31.1594L71.9051 31.9338H70.9062L70.7248 31.6718C70.3276 31.8935 69.9188 32 69.4956 31.9914C69.0753 31.9885 68.7356 31.8676 68.4737 31.6344C68.2117 31.4012 68.0908 31.099 68.1167 30.7334H68.1138ZM69.5676 31.2659C69.7605 31.2717 69.9908 31.2112 70.2585 31.0817L69.5503 30.0569L69.4697 30.1058C69.2365 30.2699 69.1012 30.4628 69.0696 30.6873C69.0465 30.86 69.0811 30.9982 69.1761 31.1019C69.2711 31.2055 69.4006 31.2602 69.5676 31.2659ZM69.6914 28.5398C69.6827 28.5887 69.6827 28.6377 69.6885 28.6866C69.7029 28.796 69.7576 28.9342 69.8497 29.104L70.1203 28.9486C70.3938 28.7931 70.5406 28.6175 70.5608 28.4246C70.5752 28.321 70.5492 28.2346 70.4859 28.1655C70.4226 28.0965 70.3362 28.0619 70.2297 28.0619C70.0915 28.059 69.9735 28.1022 69.8727 28.1943C69.772 28.2865 69.7115 28.4016 69.6914 28.5398Z" fill="white" fill-opacity="0.63"/>
<path d="M79.2865 29.9672H77.4383L77.2138 31.1821H79.3872L79.249 31.9334H76.1055L76.9432 27.3994H80.0781L79.9371 28.1565H77.7751L77.5736 29.2389H79.4275L79.2894 29.9701L79.2865 29.9672Z" fill="white" fill-opacity="0.63"/>
<path d="M84.0172 30.0795H82.1691L81.8236 31.9334H80.8535L81.6912 27.3994H84.7456L84.6045 28.1565H82.5261L82.3073 29.3282H84.1612L84.0201 30.0824L84.0172 30.0795Z" fill="white" fill-opacity="0.63"/>
<path d="M88.6735 30.0795H86.8253L86.4799 31.9334H85.5098L86.3475 27.3994H89.4018L89.2608 28.1565H87.1823L86.9635 29.3282H88.8174L88.6764 30.0824L88.6735 30.0795Z" fill="white" fill-opacity="0.63"/>
<path d="M91.1928 31.9334H90.2227L91.0575 27.3994H92.0276L91.1928 31.9334Z" fill="white" fill-opacity="0.63"/>
<path d="M97.0615 30.4195C97.0241 30.7333 96.909 31.0097 96.7219 31.2515C96.5319 31.4933 96.2843 31.6804 95.9792 31.8099C95.674 31.9395 95.3458 32.0028 94.9917 31.9942C94.6751 31.9884 94.3958 31.9193 94.1598 31.7869C93.9237 31.6545 93.7366 31.4645 93.6013 31.214C93.466 30.9636 93.3883 30.6757 93.371 30.3504C93.3566 30.0942 93.3825 29.7776 93.4545 29.3976C93.5265 29.0176 93.6531 28.6808 93.8374 28.3842C94.0216 28.0877 94.2404 27.8546 94.4937 27.6847C94.8507 27.4429 95.2595 27.3278 95.7201 27.3364C96.2181 27.345 96.6153 27.489 96.9061 27.7711C97.1997 28.0532 97.3581 28.4447 97.3868 28.9427H96.4196C96.4196 28.652 96.3591 28.4447 96.2382 28.3094C96.1173 28.1741 95.9273 28.105 95.6711 28.0964C95.3401 28.0849 95.0666 28.1971 94.8536 28.4303C94.6405 28.6635 94.4966 29.0032 94.4246 29.4494C94.3527 29.8841 94.3239 30.2094 94.3325 30.4253C94.344 30.6988 94.4074 30.9003 94.5283 31.0298C94.6463 31.1593 94.8133 31.2284 95.0292 31.2342C95.3257 31.2457 95.5617 31.1795 95.7402 31.0356C95.9187 30.8945 96.0367 30.6901 96.0943 30.4224L97.0587 30.4166L97.0615 30.4195Z" fill="white" fill-opacity="0.63"/>
<path d="M101.316 30.9978H99.6353L99.1373 31.9334H98.0664L100.643 27.3994H101.541L102.459 31.9334H101.469L101.316 30.9978ZM100.033 30.2407H101.196L100.925 28.5509L100.035 30.2407H100.033Z" fill="white" fill-opacity="0.63"/>
<path d="M107.823 30.4195C107.786 30.7333 107.671 31.0097 107.484 31.2515C107.294 31.4933 107.046 31.6804 106.741 31.8099C106.436 31.9395 106.108 32.0028 105.753 31.9942C105.437 31.9884 105.158 31.9193 104.921 31.7869C104.685 31.6545 104.498 31.4645 104.363 31.214C104.228 30.9636 104.15 30.6757 104.133 30.3504C104.118 30.0942 104.144 29.7776 104.216 29.3976C104.288 29.0176 104.415 28.6808 104.599 28.3842C104.783 28.0877 105.002 27.8546 105.255 27.6847C105.612 27.4429 106.021 27.3278 106.482 27.3364C106.98 27.345 107.377 27.489 107.668 27.7711C107.961 28.0532 108.12 28.4447 108.149 28.9427H107.181C107.181 28.652 107.121 28.4447 107 28.3094C106.879 28.1741 106.689 28.105 106.433 28.0964C106.102 28.0849 105.828 28.1971 105.615 28.4303C105.402 28.6635 105.258 29.0032 105.186 29.4494C105.114 29.8841 105.086 30.2094 105.094 30.4253C105.106 30.6988 105.169 30.9003 105.29 31.0298C105.408 31.1593 105.575 31.2284 105.791 31.2342C106.087 31.2457 106.323 31.1795 106.502 31.0356C106.68 30.8945 106.798 30.6901 106.856 30.4224L107.82 30.4166L107.823 30.4195Z" fill="white" fill-opacity="0.63"/>
<path d="M112.431 29.9672H110.583L110.358 31.1821H112.532L112.394 31.9334H109.25L110.088 27.3994H113.223L113.082 28.1565H110.92L110.718 29.2389H112.572L112.434 29.9701L112.431 29.9672Z" fill="white" fill-opacity="0.63"/>
</g>
<defs>
<clipPath id="clip0_458_6718">
<rect width="113.218" height="32" fill="white"/>
</clipPath>
</defs>
</svg>
