<svg width="121" height="32" viewBox="0 0 121 32" fill="none" xmlns="http://www.w3.org/2000/svg">
<g clip-path="url(#clip0_458_6772)">
<path d="M0.00195312 30.222C0.00195312 31.2039 0.797891 31.9998 1.77973 31.9998H118.831C119.813 31.9998 120.609 31.2039 120.609 30.222V23.1811C120.609 22.1993 119.813 21.4033 118.831 21.4033H1.77973C0.797893 21.4033 0.00195312 22.1993 0.00195312 23.1811V30.222Z" fill="#C6CFFF"/>
<path d="M6.98667 25.9777C6.86283 26.0974 6.73074 26.1717 6.58626 26.1717H3.34168V24.537H6.58626C6.73074 24.537 6.86283 24.6113 6.98667 24.731C7.14766 24.892 7.22609 25.1149 7.22609 25.3585C7.22609 25.602 7.14353 25.8125 6.98667 25.9777ZM7.57284 27.9632C7.81226 27.9384 8.1714 27.6825 8.65024 27.1995C9.17449 26.6794 9.43456 26.0602 9.43456 25.3461C9.43456 24.6319 9.17449 24.0045 8.65024 23.4844C8.08884 22.923 7.4036 22.6299 6.59039 22.6299H1.16211V30.6629H3.34168V28.0747H4.88966L7.15179 30.6629H9.90514L7.57284 27.9632Z" fill="black"/>
<path d="M35.4081 24.537H38.9292L39.7177 22.6299H33.2285V30.6629H35.4081V27.666H38.5577L39.5237 25.763H35.4081V24.537Z" fill="black"/>
<path d="M43.9647 30.6629H41.7852V22.6299H43.9647V30.6629Z" fill="black"/>
<path d="M54.0465 30.6629H52.1682L48.5975 26.4152V30.6629H46.418V22.6299H48.0568L52.0031 27.4142V22.6299H54.0465V30.6629Z" fill="black"/>
<path d="M86.9274 25.9777C86.8036 26.0974 86.6715 26.1717 86.527 26.1717H83.2948V24.537H86.527C86.6715 24.537 86.8036 24.6113 86.9274 24.731C87.0884 24.892 87.1668 25.1149 87.1668 25.3585C87.1668 25.602 87.0843 25.8125 86.9274 25.9777ZM87.5136 27.9632C87.753 27.9384 88.1121 27.6825 88.5869 27.1995C89.1111 26.6794 89.3712 26.0602 89.3712 25.3461C89.3712 24.6319 89.1111 24.0045 88.5869 23.4844C88.0255 22.923 87.3402 22.6299 86.527 22.6299H81.1152V30.6629H83.2948V28.0747H84.8263L87.0884 30.6629H89.8418L87.5095 27.9632H87.5136Z" fill="black"/>
<path d="M109.149 27.3226C109.149 28.2514 108.798 29.0564 108.121 29.7334C107.403 30.4516 106.519 30.8108 105.487 30.8108C104.456 30.8108 103.551 30.4516 102.833 29.7334C102.16 29.0564 101.793 28.2514 101.793 27.3226V22.625H104.109V27.3226C104.109 27.785 104.237 28.173 104.555 28.4867C104.831 28.7633 105.137 28.9036 105.496 28.9036C105.855 28.9036 106.198 28.7633 106.478 28.4867C106.792 28.173 106.969 27.785 106.969 27.3226V22.625H109.149V27.3226Z" fill="black"/>
<path d="M117.002 26.2625C116.878 26.3822 116.746 26.44 116.601 26.44H113.662V24.5329H116.601C116.746 24.5329 116.878 24.6031 117.002 24.7228C117.163 24.9209 117.241 25.1851 117.241 25.4988C117.241 25.8125 117.163 26.0644 117.002 26.2584V26.2625ZM118.661 23.4844C118.1 22.923 117.414 22.6299 116.601 22.6299H111.482V30.6629H113.662V28.3471H116.601C117.414 28.3471 118.104 28.0664 118.661 27.5009C119.185 26.9642 119.445 26.2914 119.445 25.4947C119.445 24.698 119.181 24.021 118.661 23.4844Z" fill="black"/>
<path d="M17.5862 28.334C17.2064 28.7137 16.5996 28.9036 15.7699 28.9036C14.9401 28.9036 14.3292 28.7137 13.9494 28.3381C13.5325 27.917 13.3261 27.3556 13.3261 26.6539C13.3261 25.915 13.5325 25.3412 13.9494 24.9201C14.3292 24.5445 14.936 24.3546 15.7699 24.3546C16.6037 24.3546 17.2105 24.5404 17.5862 24.916C18.0031 25.3371 18.2095 25.915 18.2095 26.6498C18.2095 27.3845 18.0031 27.917 17.5862 28.3298M19.2497 23.6776C18.4324 22.8562 17.2724 22.4434 15.7657 22.4434C14.259 22.4434 13.0991 22.8479 12.2817 23.6652C11.5015 24.4413 11.1094 25.6219 11.1094 26.9841H11.1135C11.1135 27.9377 11.5015 28.7963 12.2776 29.5682C13.0949 30.3897 14.2549 30.8066 15.7616 30.8066C17.2683 30.8066 18.4283 30.398 19.2497 29.5765C20.0217 28.7963 20.4097 27.8221 20.4097 26.6456C20.4097 25.4692 20.0217 24.4454 19.2456 23.6735" fill="black"/>
<path d="M28.2988 28.334C27.9191 28.7137 27.3122 28.9036 26.4825 28.9036C25.6528 28.9036 25.0419 28.7137 24.6621 28.3381C24.2452 27.917 24.0388 27.3556 24.0388 26.6539C24.0388 25.915 24.2452 25.3412 24.6621 24.9201C25.0419 24.5445 25.6487 24.3546 26.4825 24.3546C27.3164 24.3546 27.9232 24.5404 28.2988 24.916C28.7158 25.3371 28.9263 25.915 28.9263 26.6498C28.9263 27.3845 28.7158 27.917 28.2988 28.3298M29.9624 23.6776C29.1451 22.8562 27.9851 22.4434 26.4784 22.4434C24.9717 22.4434 23.8117 22.8479 22.9944 23.6652C22.2142 24.4413 21.8262 25.6219 21.8262 26.9841H21.8303C21.8303 27.9377 22.2183 28.7963 22.9944 29.5682C23.8117 30.3897 24.9717 30.8066 26.4784 30.8066C27.9851 30.8066 29.1451 30.398 29.9665 29.5765C30.7385 28.7963 31.1265 27.8221 31.1265 26.6456C31.1265 25.4692 30.7385 24.4454 29.9624 23.6735" fill="black"/>
<path d="M97.2988 28.334C96.919 28.7137 96.3122 28.9036 95.4825 28.9036C94.6528 28.9036 94.0419 28.7137 93.6621 28.3381C93.241 27.917 93.0346 27.3556 93.0346 26.6539C93.0346 25.915 93.241 25.3412 93.6621 24.9201C94.0419 24.5445 94.6487 24.3546 95.4825 24.3546C96.3164 24.3546 96.9232 24.5404 97.2988 24.916C97.7157 25.3371 97.9221 25.915 97.9221 26.6498C97.9221 27.3845 97.7157 27.917 97.2988 28.3298M98.9624 23.6776C98.1451 22.8562 96.9851 22.4434 95.4784 22.4434C93.9717 22.4434 92.8117 22.8479 91.9985 23.6652C91.2183 24.4413 90.8262 25.6219 90.8262 26.9841H90.8303C90.8303 27.9377 91.2183 28.7963 91.9944 29.5682C92.8117 30.3897 93.9717 30.8066 95.4743 30.8066C96.9768 30.8066 98.1409 30.398 98.9624 29.5765C99.7343 28.7963 100.122 27.8221 100.122 26.6456C100.122 25.4692 99.7343 24.4454 98.9541 23.6735" fill="black"/>
<path d="M27.0742 1.41602H21.9844V19.9011H26.5169H27.0742H36.6139L38.4385 15.5048H27.0742V1.41602Z" fill="white"/>
<path d="M80.4565 12.2684C79.9116 11.1044 79.4782 10.4563 79.1645 10.3159C79.342 10.2003 79.6144 9.58526 79.9818 8.46658C80.3533 7.39744 80.3698 6.32417 80.0396 5.24677C79.6928 4.12396 79.0406 3.21581 78.0871 2.52231C77.0344 1.7834 75.7589 1.41602 74.2646 1.41602H62.4297V19.9011H67.5236V5.81643H74.2646C74.4545 5.81643 74.6443 5.90724 74.8301 6.08062C75.0984 6.35719 75.2346 6.70807 75.2346 7.13325C75.2346 7.55843 75.0984 7.91756 74.8301 8.19827C74.6443 8.37577 74.4545 8.46246 74.2646 8.46246H69.9921L67.8002 12.8629H74.9705C75.1645 12.8629 75.3544 12.9496 75.536 13.1271C75.8043 13.4036 75.9405 13.7545 75.9405 14.1797C75.9405 14.6049 75.8084 14.964 75.536 15.2406C75.3502 15.4181 75.1645 15.5089 74.9705 15.5089H69.9921L67.763 19.9093H74.9663C76.5597 19.9093 77.8931 19.4883 78.9622 18.6503C79.9488 17.8907 80.5721 16.8959 80.8322 15.674C81.1005 14.4934 80.9725 13.3665 80.4524 12.2767" fill="white"/>
<path d="M89.959 1.41602L80.7578 19.9011H95.6887L93.4802 15.6204H88.3574L91.635 8.87525L96.9559 19.9011H102.5L93.2986 1.41602H89.959Z" fill="white"/>
<path d="M108.977 15.5048V1.41602H103.883V19.9011H108.419L120.209 20.0827L120.341 15.5048H108.977Z" fill="white"/>
<path fill-rule="evenodd" clip-rule="evenodd" d="M49.4143 19.9748C49.4143 19.9748 49.4391 19.9211 49.4308 19.9087C49.4102 19.8757 49.2822 19.7849 49.2698 19.7477C49.2244 19.628 49.1997 19.4835 49.3276 19.3143C49.4061 19.207 49.4762 18.852 49.4556 18.6456C49.4473 18.5713 49.4804 18.6951 49.5299 18.6579C49.6042 18.6043 49.7115 18.3896 49.7445 18.2988C49.7569 18.2617 49.7363 18.0387 49.7528 17.9975C49.7776 17.9149 49.8065 17.8984 49.8354 17.82C49.8808 17.6837 49.9344 17.626 49.9592 17.4485C49.9633 17.3948 49.9303 17.1884 49.9386 17.143C49.9468 17.0976 50.0046 17.1677 50.0129 17.1347C50.0459 17.0398 50.0376 16.8623 50.0376 16.7219C50.0294 16.3999 49.0758 16.2761 49.0222 15.9789C49.0015 15.8592 48.9272 15.7849 48.8777 15.6941C48.7703 15.5042 48.6506 15.3267 48.5309 15.1161C48.4814 15.0253 48.3988 14.8974 48.308 14.8107C48.2667 14.7735 48.2007 14.7777 48.1759 14.7405C48.081 14.6043 48.1181 14.4763 48.114 14.402C48.114 14.3607 48.3039 14.3153 48.3039 14.2782C48.3039 14.1461 48.1512 13.9438 48.1512 13.8324C48.1512 13.7828 48.1883 13.8241 48.2089 13.7952C48.2544 13.7333 48.2998 13.6136 48.3039 13.5434C48.3039 13.465 48.502 13.5145 48.502 13.4526C48.502 13.4196 48.4938 13.3865 48.4938 13.3618C48.4938 13.3411 48.5351 13.37 48.5433 13.3618C48.5639 13.3329 48.5639 13.2751 48.5639 13.2668C48.5639 13.2544 48.5639 13.2338 48.6383 13.1966C48.6506 13.1925 48.663 13.2297 48.6795 13.2214C48.7456 13.2008 48.7745 13.1389 48.791 13.0646C48.7951 13.0357 48.7456 12.9572 48.7497 12.9283C48.7497 12.9036 48.8034 12.9283 48.8034 12.9036C48.8034 12.7962 48.7869 12.7013 48.8034 12.693C48.8281 12.6806 48.7786 12.6229 48.7786 12.594C48.7786 12.5609 48.8199 12.5568 48.7992 12.5362C48.6011 12.3504 48.6176 12.2307 48.6094 12.1936C48.6011 12.1564 48.3864 12.0326 48.3947 12.144C48.3947 12.1647 48.3493 12.1936 48.3204 12.2059C48.2667 12.2266 48.2378 12.2348 48.2502 12.2679C48.2585 12.2885 48.3576 12.3463 48.3287 12.3504C48.2791 12.3545 48.2915 12.3876 48.2709 12.3917C48.1594 12.4123 48.1594 12.3752 48.147 12.3504C48.1305 12.3215 48.0603 12.3339 48.0397 12.2472C48.0397 12.2348 47.9159 12.2183 47.9117 12.2059C47.8952 12.1647 47.8539 12.2059 47.8457 12.1936C47.8374 12.1812 47.8292 12.2224 47.825 12.2101C47.7961 12.1647 47.7053 12.1564 47.6888 12.1316C47.6806 12.1192 47.7012 12.0986 47.6764 12.0615C47.6228 11.9872 47.5443 11.9417 47.4783 11.8881C47.4742 11.884 47.4535 11.9376 47.4494 11.9335C47.4081 11.8963 47.3668 11.8716 47.3256 11.8344C47.276 11.789 47.3421 11.789 47.3421 11.7395C47.3421 11.7065 47.3049 11.6528 47.2925 11.6363C47.2224 11.5331 47.0531 11.3473 47.0407 11.2606C47.0366 11.2317 46.8921 11.2606 46.8674 11.24C46.8426 11.2193 46.7848 11.2152 46.7559 11.1946C46.7146 11.1616 46.6321 11.1492 46.5908 11.112C46.533 11.0666 46.3761 11.079 46.3183 11.0336C46.1821 10.9221 46.0624 10.7075 45.922 10.596C45.8519 10.5382 45.6248 10.7364 45.5547 10.6786C45.2451 10.4268 44.7703 10.2245 44.5309 9.95206C44.3245 9.7209 44.3204 10.0429 44.3741 9.38653C44.3988 9.07281 44.1057 8.74257 44.0273 8.57745C44.0108 8.5403 44.0686 8.44948 44.048 8.41233C43.9902 8.31739 43.9406 8.21832 43.9035 8.12337C43.8705 8.03256 43.8457 7.95 43.825 7.87157C43.792 7.7436 43.8539 7.4918 43.792 7.44639C43.7796 7.43813 43.6847 7.59087 43.6723 7.58674C43.6641 7.58674 43.7507 7.82616 43.8168 8.15227C43.8828 8.47012 43.9365 8.87466 44.0108 8.98612C44.0314 9.01914 43.9489 9.10583 43.9489 9.10583C43.887 9.08932 43.8292 9.03566 43.8168 8.97786C43.7714 8.73844 43.6517 8.72606 43.631 8.6146C43.6186 8.52379 43.6847 8.45361 43.6517 8.36692C43.6104 8.2596 43.4742 8.21006 43.4742 8.13163C43.4742 8.05733 43.5856 7.98302 43.5567 7.91698C43.4122 7.60738 43.4989 7.22761 43.4989 6.99231C43.4989 6.80242 43.2843 6.75289 43.2636 6.69097C43.2389 6.60841 43.2719 6.00985 43.5113 5.55578C43.6929 5.21316 44.0356 4.94071 44.2048 4.54855C44.3245 4.27198 44.1924 3.97064 44.2998 3.73122C44.341 3.6404 44.3988 3.80139 44.4401 3.73122C44.6713 3.32255 44.8529 2.93865 44.7538 2.8726C44.5144 2.71986 44.0397 3.19458 44.0108 3.14505C43.9654 3.07074 43.726 3.16981 43.7177 3.11202C43.7095 3.06661 43.792 3.05836 43.8498 3.00469C43.92 2.93865 43.9695 2.83545 44.0438 2.82719C44.1099 2.82306 44.2626 2.68684 44.3328 2.64969C44.3699 2.62905 44.3782 2.57126 44.3782 2.54649C44.3741 2.49695 44.5392 2.44329 44.5392 2.39376C44.5392 2.29468 45.0015 2.12957 45.018 2.04701C42.0294 3.65691 39.9984 6.81481 39.9984 10.4433C39.9984 15.6734 44.2089 19.917 49.4267 19.9748M48.7538 9.68787C48.7992 9.72915 48.8116 9.76218 48.8364 9.78694C48.8942 9.84061 48.9437 9.86125 48.9644 9.87363C48.985 9.88189 49.018 9.87363 49.0469 9.90666C49.0552 9.91491 49.1006 9.90253 49.1212 9.90666C49.1377 9.91078 49.1336 9.93555 49.1419 9.95206C49.1584 9.98096 49.2244 9.96445 49.2533 9.98096C49.2987 10.0016 49.3152 10.047 49.3483 10.0718C49.4226 10.1213 49.3359 10.0924 49.2616 10.1172C49.179 10.1502 48.9479 10.1131 48.7827 10.1419C48.6878 10.1585 48.9561 10.0099 48.8364 10.0099C48.824 10.0099 48.8158 9.97683 48.7992 9.98509C48.7167 10.014 48.6383 9.96858 48.6217 9.85712C48.6217 9.84474 48.597 9.84474 48.5928 9.82822C48.5763 9.77456 48.4896 9.82823 48.4814 9.85299C48.4731 9.8695 48.4814 9.83235 48.4484 9.80346C48.436 9.78695 48.3906 9.79107 48.3699 9.77869C48.3328 9.74979 48.3121 9.71264 48.2956 9.72503C48.2667 9.74567 48.1594 9.69613 48.1264 9.71264C48.1016 9.72503 48.2048 9.77869 48.18 9.79107C48.1099 9.8241 48.0025 9.79107 47.9159 9.81171C47.8705 9.81997 47.8622 9.71264 47.825 9.72503C47.8168 9.72503 47.8044 9.73741 47.792 9.72503C47.7755 9.70851 47.7549 9.67549 47.7466 9.67962C47.7342 9.68375 47.7466 9.71677 47.7301 9.72503C47.7218 9.73328 47.7095 9.71677 47.7012 9.72503C47.6723 9.75392 47.6723 9.72503 47.6517 9.72503C47.631 9.72503 47.5897 9.74979 47.5897 9.72915C47.5897 9.71677 47.6558 9.70851 47.6599 9.69613C47.6641 9.67136 47.6599 9.63008 47.6723 9.60944C47.6847 9.58467 47.759 9.58467 47.7879 9.56403C47.8209 9.53514 47.9241 9.55165 47.9695 9.53101C48.0273 9.50212 48.0438 9.49386 48.1759 9.50624C48.2048 9.50624 48.3039 9.4856 48.3741 9.52275C48.4112 9.5434 48.469 9.57229 48.4938 9.59706C48.5144 9.6177 48.4938 9.64247 48.5103 9.63421C48.5722 9.59706 48.6837 9.63008 48.7497 9.68375M49.8477 10.1296C49.9179 10.1296 49.9881 10.142 50.05 10.1585C50.0707 10.1626 50.0872 10.1585 50.1037 10.1667C50.1161 10.175 50.1202 10.2163 50.1367 10.2245C50.1615 10.2369 50.211 10.208 50.2234 10.2286C50.2234 10.241 50.2069 10.2575 50.2069 10.274C50.2069 10.2947 50.2564 10.2658 50.306 10.2864C50.3225 10.2947 50.3637 10.336 50.372 10.3483C50.3761 10.3607 50.3514 10.3772 50.3348 10.402C50.3266 10.4144 50.3266 10.4392 50.3225 10.4392C50.2936 10.4474 50.2977 10.3938 50.2894 10.3979C50.2771 10.4061 50.1119 10.3731 50.1037 10.3855C50.0748 10.4227 50.0418 10.435 50.0087 10.4268C49.9964 10.4268 50.0005 10.3979 49.9881 10.3979C49.9675 10.3979 49.9344 10.4227 49.9138 10.4227C49.9055 10.4227 49.9138 10.4598 49.9055 10.4598C49.889 10.4598 49.8684 10.5465 49.8395 10.5341C49.8065 10.5217 49.7776 10.4392 49.7404 10.435C49.6579 10.435 49.5629 10.435 49.4845 10.435C49.4804 10.435 49.4597 10.435 49.4721 10.4639C49.4762 10.4763 49.4308 10.4763 49.4267 10.4763C49.3937 10.4763 49.3895 10.4309 49.3648 10.4268C49.34 10.4227 49.3194 10.4144 49.3194 10.402C49.3111 10.3607 49.5093 10.3896 49.5918 10.3896C49.6909 10.3896 49.6744 10.3607 49.6702 10.3525C49.6579 10.3277 49.6207 10.3071 49.6207 10.2782C49.6207 10.2617 49.6331 10.2245 49.6125 10.208C49.5877 10.1874 49.5299 10.2039 49.5051 10.1915C49.4845 10.1832 49.4927 10.1461 49.5051 10.1419C49.5175 10.1337 49.5836 10.0965 49.6331 10.1048C49.6661 10.1131 49.6744 10.1585 49.7074 10.1626C49.7693 10.1626 49.8106 10.1378 49.8477 10.1378M50.6899 10.3483C50.7724 10.3483 50.8385 10.3731 50.8385 10.4061C50.8385 10.4392 50.7724 10.4639 50.6899 10.4639C50.6073 10.4639 50.5412 10.4392 50.5412 10.4061C50.5412 10.3731 50.6073 10.3483 50.6899 10.3483ZM48.8405 10.3525C48.9396 10.3525 48.985 10.3814 48.985 10.4227C48.985 10.4433 49.051 10.4846 49.018 10.5011C48.985 10.5135 48.8901 10.5011 48.8405 10.5011C48.7456 10.5011 48.6671 10.4681 48.6671 10.4268C48.6671 10.4061 48.6506 10.3731 48.6795 10.3607C48.7126 10.3483 48.7951 10.3525 48.8447 10.3525M48.7084 8.80449C48.7084 8.80449 48.7703 8.82513 48.8075 8.85402C48.8405 8.87879 48.8694 8.91182 48.9024 8.93246C48.9107 8.93658 48.9272 8.93246 48.9313 8.93658C48.9396 8.94897 48.9272 8.96961 48.9313 8.97374C48.9313 8.97374 48.9066 9.00676 48.8942 9.06455C48.8942 9.06868 48.8323 9.01089 48.8281 8.99025C48.8281 8.98199 48.8529 9.00263 48.8694 9.00263C48.8859 9.00263 48.8901 8.98612 48.8901 8.98612C48.8777 8.97374 48.8901 8.92833 48.8735 8.92007C48.8323 8.89118 48.7869 8.87466 48.7869 8.88292C48.7869 8.90356 48.8199 8.96548 48.8116 8.96548C48.7992 8.96135 48.7621 8.8953 48.7167 8.90356C48.696 8.90356 48.6754 8.94071 48.663 8.94484C48.6341 8.94897 48.6259 8.91182 48.6259 8.88292C48.6259 8.83751 48.6548 8.80036 48.7167 8.80862M48.7002 9.08932C48.7002 9.08932 48.7497 9.06042 48.7786 9.06455C48.7992 9.06455 48.8116 9.09757 48.8158 9.10583C48.8158 9.10996 48.7992 9.13885 48.7745 9.13473C48.758 9.13473 48.7332 9.10583 48.7249 9.11409C48.7126 9.12647 48.7456 9.17601 48.7456 9.18426C48.7621 9.22967 48.7992 9.26682 48.7992 9.32049C48.7992 9.34525 48.8364 9.39066 48.8364 9.4113C48.8364 9.46084 48.7992 9.47735 48.758 9.47322C48.7456 9.47322 48.7043 9.32874 48.696 9.32874C48.6878 9.32874 48.6795 9.34112 48.6754 9.37415C48.6754 9.38653 48.6878 9.4113 48.6837 9.42368C48.6837 9.4402 48.6713 9.42781 48.663 9.4402C48.6465 9.46496 48.6465 9.5145 48.6424 9.49799C48.6424 9.48973 48.6259 9.42368 48.6424 9.37828C48.6548 9.34112 48.6795 9.32048 48.6795 9.31636C48.6795 9.29159 48.6506 9.27095 48.6506 9.24618C48.6506 9.21316 48.6795 9.17188 48.6795 9.14711C48.6795 9.10996 48.5722 9.17601 48.5639 9.1306C48.5516 9.07693 48.564 9.0274 48.5846 9.01502C48.597 9.01089 48.6837 9.08932 48.7043 9.08932M49.0015 9.5145C49.0015 9.5145 49.0222 9.53927 49.0345 9.54752C49.0469 9.55991 49.0923 9.56403 49.1006 9.58055C49.113 9.59706 49.0923 9.62595 49.0923 9.65072C49.0923 9.68787 49.1336 9.74979 49.113 9.73741C49.1006 9.72915 49.0345 9.65072 49.0222 9.65072C49.0098 9.65072 49.0056 9.71677 48.9933 9.7209C48.9726 9.72915 48.9437 9.67549 48.9437 9.63834C48.9437 9.58055 48.9685 9.51863 49.0056 9.51863M49.3895 9.6177C49.4267 9.6177 49.4308 9.60119 49.4308 9.65485C49.4308 9.70851 49.3937 9.73328 49.3565 9.73328C49.3194 9.73328 49.3524 9.69613 49.3524 9.64247C49.3524 9.61357 49.34 9.60119 49.3565 9.60119C49.3689 9.60119 49.373 9.62183 49.3895 9.62183M49.5299 9.90253C49.567 9.90253 49.5877 9.78695 49.5877 9.84474C49.5877 9.90253 49.5505 9.95206 49.5134 9.95206C49.4762 9.95206 49.4597 9.98921 49.4597 9.93142C49.4597 9.87363 49.4927 9.90253 49.5299 9.90253ZM49.7693 9.77043C49.8065 9.77043 49.8147 9.77043 49.8147 9.82822C49.8147 9.88602 49.8023 9.8984 49.7652 9.8984C49.728 9.8984 49.6537 9.86125 49.6537 9.80346C49.6537 9.74567 49.728 9.77043 49.7652 9.77043M49.5712 9.66723C49.5712 9.66723 49.5836 9.67549 49.5959 9.67962C49.6083 9.67962 49.6248 9.67962 49.6248 9.68375C49.6248 9.69613 49.6001 9.70439 49.5712 9.70439C49.5423 9.70439 49.5381 9.69613 49.5381 9.68787C49.5381 9.67549 49.5382 9.66723 49.5712 9.66723ZM48.9479 9.20903C48.9685 9.20903 48.9313 9.3081 48.9644 9.3081C48.9809 9.3081 48.9726 9.31636 48.9809 9.337C48.9933 9.35764 49.018 9.38653 49.0345 9.41543C49.0552 9.44845 49.1047 9.46496 49.1254 9.4856C49.1419 9.50212 49.1997 9.42781 49.1997 9.45258C49.1997 9.55991 49.3318 9.59706 49.2616 9.59706C49.2451 9.59706 49.2286 9.55991 49.1997 9.54752C49.1831 9.53927 49.179 9.55165 49.1625 9.53927C49.146 9.53101 49.1419 9.51037 49.1254 9.50212C49.113 9.50212 49.0923 9.51037 49.0758 9.50212C49.0717 9.49799 49.0758 9.47322 49.0634 9.47322C49.051 9.47322 49.0304 9.48973 49.0222 9.48147C48.9933 9.45258 48.9809 9.3824 48.9685 9.34525C48.9561 9.31223 48.9231 9.32874 48.9231 9.31223C48.9231 9.29984 48.9355 9.27508 48.9272 9.25444C48.919 9.2338 48.8859 9.21729 48.8901 9.20903C48.9107 9.12647 48.8901 9.21316 48.9437 9.21316M48.9974 9.15124C49.0345 9.15124 49.0634 9.16775 49.0634 9.22554C49.0634 9.28333 49.0799 9.29572 49.0428 9.29572C49.0222 9.29572 49.0263 9.27095 49.018 9.25031C49.0098 9.2338 48.9685 9.24618 48.9685 9.22141C48.9685 9.2049 49.0098 9.20077 49.018 9.18426C49.0263 9.16775 48.9355 9.18013 48.9396 9.16362C48.9396 9.15537 48.9396 9.12647 48.9561 9.11821C48.985 9.1017 48.9891 9.15537 48.9974 9.15537M49.1212 9.27095C49.1584 9.27095 49.1419 9.28333 49.1708 9.33287C49.1955 9.37415 49.2162 9.38653 49.179 9.38653C49.1419 9.38653 49.1584 9.4113 49.1542 9.35764C49.1542 9.32049 49.1336 9.32461 49.1212 9.3081C49.1088 9.29159 49.1047 9.27095 49.1212 9.27095ZM49.274 9.4402C49.3111 9.42781 49.3359 9.32874 49.3359 9.39066C49.3359 9.44845 49.3276 9.40304 49.274 9.45258C49.2451 9.47735 49.212 9.47735 49.212 9.42368C49.212 9.37002 49.2368 9.44845 49.274 9.43607M48.857 9.20077C48.857 9.20077 48.8818 9.20077 48.8818 9.21316C48.8818 9.21729 48.8735 9.22141 48.8694 9.22967C48.8653 9.23793 48.8612 9.25031 48.857 9.25031C48.8488 9.25031 48.8405 9.23793 48.8405 9.22554C48.8405 9.22141 48.824 9.21729 48.8281 9.21316C48.8281 9.2049 48.857 9.20077 48.8612 9.20077M48.919 9.37415C48.919 9.37415 48.9561 9.36589 48.9561 9.3824C48.9561 9.39479 48.9066 9.40717 48.8983 9.40717C48.8901 9.40717 48.8942 9.40304 48.8942 9.39066C48.8942 9.37828 48.9148 9.37415 48.9231 9.37415M48.3906 9.40304C48.3906 9.40304 48.4731 9.39479 48.4731 9.40717C48.4731 9.41543 48.4442 9.44845 48.4979 9.45671C48.5144 9.45671 48.4979 9.47735 48.4979 9.47735C48.4979 9.47735 48.4731 9.47322 48.4608 9.45671C48.4442 9.4402 48.4401 9.4113 48.4319 9.41543C48.4236 9.41543 48.4195 9.43607 48.4153 9.43607C48.403 9.4402 48.3699 9.43607 48.3658 9.43607C48.3576 9.43607 48.3576 9.43607 48.3576 9.41956C48.3576 9.40304 48.3782 9.40304 48.3906 9.40304ZM51.3957 4.93658C51.3957 4.93658 51.437 4.94484 51.4535 4.93658C51.4659 4.93246 51.47 4.91594 51.4824 4.91594C51.5196 4.9242 51.5154 4.96135 51.5691 4.96961C51.6145 4.97786 51.7136 4.9531 51.7425 4.96961C51.759 4.98199 51.7549 5.02327 51.8127 5.08106C51.8416 5.10996 51.7714 5.24205 51.8003 5.26269C51.8333 5.28746 51.8993 5.23793 51.92 5.26269C52.0025 5.34525 51.953 5.41956 51.9241 5.4402C51.9117 5.44432 51.9035 5.42781 51.887 5.43194C51.8705 5.43194 51.8663 5.37828 51.8374 5.38653C51.8209 5.39479 51.7796 5.46909 51.7631 5.46909C51.7342 5.46909 51.7796 5.36176 51.7466 5.35351C51.7095 5.34938 51.5939 5.48973 51.5526 5.4856C51.5072 5.48147 51.6393 5.35764 51.598 5.34112C51.5691 5.33287 51.5443 5.38653 51.5113 5.37828C51.4948 5.37828 51.5361 5.31636 51.5196 5.31223C51.4948 5.31223 51.4535 5.34938 51.4288 5.34938C51.3338 5.34525 51.3751 5.20903 51.1522 5.3824C51.1398 5.39479 51.1563 5.32048 51.1522 5.32048C51.1233 5.32048 51.1811 5.26269 51.2058 5.21729C51.2182 5.19665 51.177 5.18839 51.1976 5.16775C51.2265 5.14298 51.2058 4.9985 51.2306 4.87466C51.2554 4.77146 51.3462 4.68891 51.3668 4.68065C51.4824 4.61047 51.3173 4.93246 51.3875 4.93246M49.2244 2.15433C49.3029 2.16672 49.3276 2.27817 49.3937 2.33184C49.4267 2.35248 49.5051 2.30294 49.534 2.33184C49.5588 2.35248 49.5505 2.41027 49.5794 2.43091C49.629 2.46806 49.6868 2.47219 49.7569 2.50521C49.7817 2.51759 49.8023 2.62492 49.8271 2.63318C49.8643 2.64556 49.8973 2.63318 49.9221 2.64969C49.9468 2.6662 49.9344 2.68684 49.9633 2.6951C49.9964 2.70748 50.0541 2.6951 50.0789 2.70748C50.1284 2.73225 50.1739 2.77353 50.1986 2.79004C50.2729 2.83545 50.2729 2.85196 50.1615 2.95929C50.1326 2.98405 49.9014 2.80655 49.8601 2.8437C49.8271 2.8726 50.1532 3.16981 50.1078 3.20284C50.083 3.22348 49.9138 3.08313 49.8808 3.10789C49.8477 3.12853 49.9964 3.27301 49.9592 3.29778C49.8147 3.38447 49.6166 3.20696 49.4391 3.04185C49.3648 2.9758 49.1749 3.15743 49.1171 3.06661C49.0717 3.00057 49.212 3.03772 49.1955 2.95516C49.1873 2.90975 49.4597 3.00057 49.4515 2.95103C49.4391 2.88498 49.5588 2.79004 49.5258 2.70748C49.4845 2.60428 49.2244 2.50521 49.1584 2.41027C49.1419 2.38963 48.9148 2.49695 48.791 2.48044C48.63 2.45568 48.564 2.30294 48.5681 2.2823C48.5681 2.25753 48.6506 2.15846 48.7291 2.13782C48.7662 2.12544 48.7745 2.12544 48.7951 2.15846C48.8034 2.17497 48.7208 2.24928 48.7208 2.26166C48.7249 2.28643 48.758 2.35248 48.791 2.34422C48.8199 2.34009 48.8529 2.21625 48.8859 2.20387C48.9231 2.18736 48.9313 2.16259 48.9644 2.15021C48.9974 2.14195 49.018 2.15433 49.0469 2.15021C49.0593 2.15021 49.0387 2.26992 49.0469 2.26992C49.1212 2.2823 49.212 2.27817 49.212 2.24515C49.212 2.23276 49.1254 2.20387 49.1295 2.19561C49.1543 2.15021 49.2203 2.16672 49.2244 2.16672M50.178 1.35351C50.145 1.37828 50.2028 1.46909 50.145 1.48973C50.1161 1.49799 50.0294 1.44845 49.9964 1.45258C49.9757 1.45258 49.9716 1.49799 49.9509 1.50211C49.8849 1.5145 49.8106 1.49386 49.7817 1.50211C49.7611 1.50624 49.79 1.54752 49.7817 1.56403C49.7693 1.58055 49.7157 1.56816 49.6868 1.5888C49.6785 1.59706 49.7445 1.64659 49.7322 1.67549C49.7198 1.70026 49.629 1.70026 49.6166 1.70851C49.5423 1.74979 49.4762 1.74566 49.5134 1.80346C49.5175 1.80758 49.6991 1.75805 49.728 1.79107C49.7404 1.80758 49.5836 1.90253 49.6083 1.91904C49.6702 1.96032 49.8395 1.85299 49.9344 1.91078C50.0541 1.98096 50.3183 2.08003 50.438 2.17497C50.4504 2.18736 50.438 2.27404 50.4504 2.2823C50.4669 2.29881 50.4711 2.26579 50.4876 2.2823C50.5041 2.29881 50.5247 2.208 50.5371 2.22451C50.5743 2.26166 50.661 2.26579 50.6899 2.30294C50.7105 2.33184 50.8632 2.49695 50.8839 2.51759C50.9582 2.60015 50.7394 2.55887 50.7518 2.57539C50.9334 2.81894 51.2678 3.22348 51.5402 3.37208C51.598 3.40511 51.693 3.33493 51.7714 3.33906C51.8663 3.34732 51.9365 3.42575 51.9654 3.40511C52.0273 3.36383 51.9076 3.2276 51.8581 3.07074C51.8457 3.02946 51.7755 2.80242 51.8085 2.70748C51.8457 2.60428 51.9778 2.63318 51.9571 2.57951C51.8457 2.27404 52.2172 2.39788 52.1099 2.24515C52.1016 2.23276 51.953 2.26579 51.8911 2.22038C51.8663 2.19974 51.6517 2.0759 51.6847 2.06765C51.7301 2.05526 52.0356 2.15433 52.0025 2.11718C51.9448 2.05526 51.8911 2.0016 51.7425 1.99334C51.6847 1.99334 51.6145 1.99334 51.5691 1.95619C51.5196 1.91078 51.6641 1.94381 51.6393 1.89427C51.6186 1.85712 51.4164 1.75805 51.4122 1.75392C51.3668 1.71264 51.2884 1.71264 51.2306 1.67549C51.0985 1.5888 50.9582 1.53514 50.8054 1.47322C50.7889 1.46496 50.7889 1.40717 50.7683 1.39892C50.7229 1.37828 50.6733 1.45258 50.6279 1.44019C50.5578 1.41956 50.5041 1.42781 50.4463 1.40717C50.3555 1.37415 50.2193 1.34112 50.178 1.36589M52.8653 2.42678C52.8942 2.40614 53.0428 2.42265 53.0717 2.46806C53.0758 2.47631 53.1171 2.49695 53.1295 2.54649C53.146 2.59603 53.1295 2.67446 53.1295 2.68684C53.1088 2.73225 53.0552 2.71986 52.9726 2.72812C52.9479 2.72812 52.824 2.64556 52.7208 2.60841C52.663 2.58777 52.5392 2.71161 52.597 2.59603C52.6795 2.42678 52.6713 2.58777 52.7415 2.563C52.7951 2.54649 52.8529 2.43504 52.8694 2.42265M49.5175 20.4784C55.0614 20.4784 59.5526 15.9872 59.5526 10.4433C59.5526 4.89943 55.0572 0.408203 49.5175 0.408203C43.9778 0.408203 39.4824 4.89943 39.4824 10.4433C39.4824 15.9872 43.9736 20.4784 49.5175 20.4784ZM48.1842 2.05526C48.1842 2.05526 48.1635 2.10067 48.1842 2.13782C48.2007 2.17497 48.2296 2.23276 48.2544 2.22864C48.308 2.22038 48.3452 2.12131 48.3947 2.09241C48.4608 2.05526 48.5681 2.05526 48.5681 2.10893C48.5681 2.12131 48.5392 2.21625 48.502 2.23276C48.4773 2.24515 48.4442 2.13782 48.4153 2.13782C48.3658 2.13782 48.3328 2.23276 48.3121 2.24515C48.2915 2.26166 48.3369 2.26166 48.341 2.29881C48.341 2.34009 48.3039 2.4144 48.2874 2.43503C48.275 2.44742 48.275 2.46806 48.2791 2.48457C48.3245 2.47631 48.6176 2.68684 48.6052 2.72812C48.6052 2.72812 48.7291 2.54649 48.7497 2.48044C48.758 2.45568 48.8735 2.48044 48.9024 2.53823C48.9148 2.563 48.8447 2.57126 48.8447 2.60428C48.8405 2.66207 48.8901 2.73638 48.8901 2.7405C48.8859 2.77766 48.5846 2.86847 48.5681 2.93039C48.5681 2.95103 48.7002 2.91801 48.7951 3.04185C48.8034 3.05423 48.8075 3.12441 48.8158 3.13679C48.8281 3.1533 48.8405 3.11615 48.8529 3.13679C48.9561 3.27301 48.9933 3.4629 48.9644 3.48767C48.9561 3.49179 48.9396 3.49592 48.9107 3.48767C48.8983 3.48767 48.8942 3.4629 48.8901 3.42988C48.8901 3.40924 48.9272 3.40511 48.9272 3.35557C48.9272 3.32668 48.8777 3.31016 48.8694 3.2854C48.8199 3.13679 48.8075 3.36796 48.758 3.42575C48.7456 3.44226 48.7249 3.42988 48.7043 3.41336C48.6919 3.40511 48.6465 3.50005 48.6341 3.49179C48.6259 3.48354 48.6548 3.36796 48.6465 3.36383C48.6383 3.3597 48.63 3.30191 48.6589 3.26063C48.6754 3.23999 48.7002 3.26063 48.7208 3.23999C48.7621 3.19871 48.7538 3.16156 48.7456 3.15743C48.7415 3.15743 48.7084 3.19871 48.6754 3.21522C48.663 3.22348 48.6548 3.19458 48.6424 3.20696C48.6176 3.23173 48.6094 3.2854 48.5887 3.30191C48.5763 3.31429 48.5763 3.27301 48.5639 3.2854C48.5433 3.30604 48.5227 3.36383 48.5185 3.36383C48.5062 3.35557 48.5144 3.30191 48.4896 3.29365C48.4525 3.28127 48.3823 3.31429 48.403 3.29365C48.4773 3.2276 48.4401 3.14917 48.4319 3.1533C48.4195 3.16569 48.403 3.16981 48.3864 3.17394C47.9571 3.26888 47.5609 3.58261 47.5774 3.66517C47.598 3.76424 47.5774 3.93349 47.8292 3.91698C47.9159 3.91285 48.1223 4.22657 48.2213 4.21832C48.3452 4.21006 48.6052 4.13989 48.6837 4.77559C48.6919 4.8499 48.8034 4.81687 48.919 4.67239C48.9561 4.62699 48.8281 4.28024 48.8777 4.26785C48.9396 4.25547 49.1377 4.18529 49.1625 4.07797C49.1749 4.03256 49.1377 3.98715 49.1295 3.92936C49.1254 3.88808 49.1584 3.83029 49.1336 3.80965C49.1047 3.78488 49.0304 3.83442 49.018 3.80139C49.0015 3.76011 49.0552 3.64453 49.0717 3.59912C49.0965 3.53307 49.051 3.29778 49.1088 3.28952C49.1666 3.27714 49.274 3.32668 49.3318 3.33493C49.3772 3.34319 49.4061 3.28127 49.4473 3.29778C49.5299 3.3308 49.5505 3.46703 49.7198 3.46703C49.7569 3.46703 49.8023 3.72709 49.8354 3.73534C49.889 3.74773 49.9798 3.80965 50.0294 3.83442C50.0583 3.8468 50.0872 3.80965 50.1037 3.78901C50.1285 3.75186 50.178 3.73535 50.1904 3.70232C50.2275 3.62802 50.211 3.56197 50.2688 3.5661C50.3472 3.5661 50.2151 3.62389 50.3926 3.7147C50.4339 3.73534 50.4793 3.85093 50.6114 3.92936C50.6362 3.94174 50.6279 4.04081 50.6486 4.06145C50.6733 4.08209 50.7807 4.09035 50.8178 4.18942C50.8261 4.21419 51.0036 4.17291 51.0366 4.2596C51.0449 4.28849 51.0614 4.32977 51.1481 4.32564C51.177 4.32564 51.1481 4.3628 51.2306 4.35454C51.2678 4.35041 51.3751 4.44123 51.3627 4.52379C51.3462 4.63111 51.1687 4.57332 51.1522 4.67239C51.1357 4.76321 51.0283 4.77559 51.016 4.85815C51.0118 4.89943 50.8302 4.85815 50.7889 4.84577C50.3968 4.75082 49.8725 4.96135 49.8395 5.29984C49.8354 5.37002 49.8725 5.40717 49.9468 5.32874C49.984 5.28746 50.0954 5.17188 50.1326 5.17188C50.1739 5.17188 50.2151 5.10996 50.2853 5.10583C50.3348 5.1017 50.4793 5.03978 50.5082 5.08932C50.5412 5.14711 50.5247 5.13885 50.3225 5.18426C50.2853 5.19252 50.3225 5.25031 50.4546 5.31223C50.4876 5.32874 50.5 5.41956 50.5206 5.44845C50.5536 5.48973 50.5949 5.49386 50.6981 5.56816C50.7311 5.59293 50.8137 5.62183 50.9499 5.59293C50.9912 5.58467 51.0283 5.43194 51.0366 5.45671C51.049 5.48148 51.1398 5.47735 51.1192 5.53927C51.1068 5.57229 51.1398 5.5888 51.0944 5.59706C51.0283 5.60531 50.9623 5.64247 50.8963 5.692C50.8467 5.73328 50.7146 5.66723 50.6692 5.72503C50.6321 5.77043 50.6444 5.83235 50.6155 5.88602C50.5784 5.94794 50.4752 6.00573 50.4092 5.96032C50.3761 5.93968 50.6114 5.64659 50.5867 5.63834C50.5578 5.62595 50.4835 5.55991 50.4752 5.5888C50.4339 5.70026 50.3431 5.5888 50.3266 5.64659C50.3183 5.67136 50.2936 5.64659 50.2894 5.67549C50.2771 5.81997 50.1697 5.70851 50.1697 5.74567C50.1697 5.83235 50.0211 5.74567 50.0211 5.7952C50.0211 5.94381 49.8477 5.82822 49.8519 5.8695C49.8601 6.01398 49.7611 5.92317 49.7611 5.96032C49.7611 6.03049 49.7941 6.15021 49.8189 6.22038C49.8312 6.25753 49.7569 6.23689 49.6702 6.23277C49.6496 6.23277 49.6455 6.29881 49.6248 6.29881C49.5505 6.29881 49.4638 6.29881 49.468 6.30294C49.4845 6.36486 49.3276 6.50521 49.3606 6.56713C49.3854 6.61254 49.3441 6.68271 49.3194 6.73638C49.307 6.76527 49.3276 6.79004 49.307 6.80655C49.2946 6.81894 49.2574 6.74051 49.2451 6.75702C49.1666 6.85609 49.0676 7.03772 49.1212 7.10789C49.2616 7.31016 49.0511 7.38034 48.8653 7.51244C48.5928 7.70645 48.2585 7.93349 48.2874 8.0243C48.3039 8.08209 48.2089 8.13989 48.2337 8.20593C48.2585 8.27198 48.2709 8.44536 48.3741 8.58158C48.3864 8.59809 48.3287 8.58158 48.3369 8.59809C48.3741 8.72606 48.4401 8.84577 48.4071 8.9242C48.4071 8.93246 48.4319 9.08106 48.3947 9.13473C48.3534 9.19665 48.275 9.2338 48.1924 9.25031C48.18 9.25031 48.1759 9.27095 48.1594 9.27508C48.1429 9.28333 48.1181 9.27508 48.0975 9.27095C48.0769 9.27095 48.147 9.26269 48.1718 9.2338C48.2131 9.18426 48.2255 9.09345 48.1966 9.0563C48.1305 8.97374 48.0273 8.821 47.9902 8.67652C47.9613 8.55681 48.1512 8.54856 47.8416 8.2596C47.8333 8.25134 47.8044 8.23483 47.7961 8.25134C47.792 8.2596 47.8044 8.30088 47.7961 8.30501C47.7714 8.31326 47.7218 8.28437 47.7218 8.30501C47.7218 8.31739 47.7177 8.35454 47.6971 8.35867C47.6806 8.3628 47.6599 8.33803 47.6352 8.33803C47.6145 8.33803 47.6641 8.11925 47.5072 8.13989C47.47 8.14401 47.4535 8.06558 47.4164 8.06145C47.3586 8.0532 47.3214 8.1275 47.3173 8.1275C47.2513 8.13989 47.1522 8.1275 47.1026 8.16053C47.0407 8.19768 47.115 8.32564 47.0903 8.37931C47.0449 8.47012 47.0118 8.44536 46.9582 8.31739C46.9086 8.21006 46.6857 8.28024 46.5949 8.26373C46.5578 8.25547 46.533 8.17291 46.4958 8.16878C46.4009 8.16053 46.2853 8.19355 46.1986 8.21832C45.8932 8.30088 45.7734 8.37105 45.7363 8.58158C45.7363 8.59396 45.7198 8.68065 45.7445 8.73019C45.7652 8.77147 45.8189 8.77559 45.8106 8.81687C45.8023 8.8499 45.7487 8.84164 45.7157 8.86641C45.6744 8.89118 45.6537 8.9531 45.6455 8.9985C45.629 9.08519 45.4762 9.20077 45.4638 9.29984C45.4267 9.58467 45.5505 9.86538 45.6413 10.0429C45.7157 10.1915 45.9757 10.2328 46.1945 10.2245C46.2771 10.2245 46.3472 10.2328 46.4092 10.208C46.4587 10.1915 46.5206 10.1543 46.5454 10.1172C46.5578 10.1007 46.5371 10.08 46.5454 10.0676C46.5743 10.0222 46.6114 10.0924 46.6321 9.87363C46.6321 9.83235 46.6651 9.79933 46.6981 9.78694C46.7559 9.76218 46.8178 9.76218 46.8715 9.75392C46.9458 9.74154 47.0366 9.71677 47.1109 9.74567C47.1481 9.76218 47.2182 9.70026 47.2471 9.74567C47.2719 9.78282 47.2719 9.84061 47.2554 9.87363C47.243 9.89427 47.1357 9.93555 47.1315 10.0016C47.1315 10.0635 47.1068 10.1956 47.0572 10.3029C47.016 10.3979 46.9458 10.4681 46.9582 10.5341C46.9871 10.6745 46.7972 10.7075 46.8096 10.7611C46.8096 10.7735 47.1563 10.8396 47.3338 10.7735C47.3462 10.7694 47.3999 10.7942 47.4618 10.8066C47.5361 10.8148 47.6186 10.8066 47.6228 10.8231C47.6393 10.8726 47.7755 10.9304 47.7838 10.9799C47.8003 11.0707 47.7384 11.1574 47.7218 11.2317C47.7095 11.2854 47.726 11.3721 47.7218 11.434C47.7177 11.467 47.6847 11.4712 47.6806 11.5001C47.6806 11.5248 47.7095 11.5537 47.7053 11.5744C47.6806 11.661 47.5485 11.6033 47.6764 11.7312C47.7301 11.7808 47.7673 11.8509 47.8085 11.8963C47.8168 11.9046 47.8457 11.9459 47.8787 11.9748C47.9117 11.9995 47.9613 12.0078 47.9695 12.0326C47.9819 12.0573 47.8787 12.0656 47.9076 12.078C47.9241 12.0904 47.9448 12.0986 47.9695 12.1069C47.9819 12.1069 47.986 12.0284 47.9984 12.0326C48.0108 12.0326 48.0314 12.1234 48.0438 12.1234C48.0727 12.1275 48.1883 12.0986 48.2378 12.0449C48.2585 12.0202 48.275 12.0449 48.2998 12.0408C48.3823 12.0367 48.3699 11.9706 48.3947 11.9706C48.4649 11.9706 48.5227 12.0202 48.6052 12.0078C48.6176 12.0078 48.696 12.0697 48.758 12.1316C48.7662 12.1399 48.7951 12.1399 48.8034 12.1481C48.8405 12.1894 48.8488 12.2307 48.8612 12.2224C48.8777 12.2142 48.8612 12.1729 48.8777 12.1605C48.8901 12.1481 48.9313 12.1688 48.9396 12.1523C48.9726 12.1151 49.0015 12.0697 49.0263 12.0202C49.0387 11.9995 49.0923 12.0491 49.1047 12.0202C49.1254 11.9748 49.1006 11.8551 49.1212 11.822C49.1584 11.7766 49.1914 11.7601 49.2409 11.7271C49.2574 11.7147 49.3235 11.7642 49.34 11.7519C49.3524 11.7436 49.3441 11.6817 49.3565 11.6734C49.373 11.6652 49.3895 11.6776 49.4102 11.6776C49.4267 11.6776 49.4102 11.6899 49.4226 11.6982C49.4515 11.7064 49.5093 11.6982 49.5216 11.6982C49.567 11.6734 49.6207 11.5991 49.7033 11.5909C49.7157 11.5909 49.7033 11.5248 49.7198 11.5207C49.7611 11.5207 49.7734 11.4794 49.8106 11.4753C49.8519 11.4753 49.8808 11.5496 49.9179 11.5496C49.9221 11.5496 49.9097 11.5826 49.8643 11.6156C49.823 11.6404 49.7487 11.6652 49.7569 11.6776C49.7652 11.6941 49.8023 11.7519 49.8436 11.7312C49.9468 11.6734 50.0418 11.6652 50.0459 11.6817C50.0541 11.7188 50.0748 11.5001 50.1161 11.5166C50.1408 11.5289 50.1573 11.628 50.1862 11.6363C50.2523 11.6569 50.3431 11.6569 50.3803 11.6817C50.4546 11.7353 50.3679 11.8055 50.4504 11.8179C50.5536 11.8303 50.6651 11.7766 50.7765 11.7766C50.8261 11.7766 50.8096 11.8509 50.8632 11.8551C50.921 11.8551 51.115 11.9376 51.1439 11.6734C51.1439 11.6528 51.1935 11.6487 51.2058 11.6693C51.2306 11.6982 51.2306 11.7601 51.2471 11.7601C51.2884 11.7601 51.4453 11.6858 51.5072 11.7106C51.5154 11.7106 51.404 11.8427 51.5237 11.8179C51.6682 11.7849 51.5526 11.7106 51.565 11.7106C51.6228 11.6982 51.6971 11.6776 51.6764 11.6982C51.6558 11.7188 51.7136 11.8014 51.6888 11.8055C51.4824 11.8592 51.7012 11.9294 51.7673 11.9583C51.825 11.983 51.8457 12.0945 51.9035 12.111C52.1305 12.1853 52.242 12.4123 52.3988 12.5031C52.4525 12.532 52.6465 12.4949 52.7745 12.4165C52.8116 12.3958 52.8323 12.4866 52.8488 12.4949C52.8983 12.5238 52.9478 12.5486 52.9933 12.5733C53.1212 12.6394 53.2616 12.6311 53.3854 12.7219C53.4556 12.7715 53.4432 12.9159 53.5216 12.9696C53.5547 12.9944 53.6042 12.9283 53.6744 12.9737C53.7652 13.0315 53.8766 13.2049 53.9179 13.2338C53.9592 13.2627 53.9798 13.4072 54.0211 13.4361C54.0954 13.4856 54.244 13.4361 54.3266 13.465C54.4092 13.4939 54.4257 13.6094 54.5082 13.6549C54.6073 13.7085 55.1563 13.659 55.2513 13.7085C55.3627 13.7663 55.4329 13.9149 55.5402 13.9644C55.5856 13.9851 55.7218 13.8984 55.7631 13.9149C55.7796 13.9232 55.7631 14.0016 55.7796 14.0099C55.8416 14.0346 55.7673 14.0635 55.8044 14.1296C55.8622 14.2286 55.8044 14.3318 55.7053 14.5135C55.6434 14.6332 55.3834 14.9386 55.3297 15.0955C55.2925 15.2111 55.21 15.0749 55.1893 15.2152C55.1852 15.2482 55.115 15.3143 55.115 15.3514C55.1068 15.434 55.0366 15.5289 55.0449 15.6239C55.0531 15.7106 55.0325 15.7023 55.0242 15.7188C55.0118 15.7395 55.0036 15.8385 54.9912 15.8633C54.9829 15.8798 54.9706 15.8592 54.9623 15.8716C54.9458 15.9005 54.9334 15.9706 54.9169 15.9995C54.9086 16.016 54.8674 16.0326 54.8508 16.0697C54.8302 16.1151 54.8302 16.1812 54.8178 16.2018C54.76 16.305 54.6527 16.4082 54.5784 16.5114C54.5536 16.5444 54.5536 16.6063 54.5247 16.6311C54.4876 16.66 54.438 16.6765 54.4009 16.7013C54.3844 16.7137 54.372 16.7632 54.3555 16.7756C54.2771 16.8251 54.0789 16.8334 53.9922 16.8747C53.9551 16.8953 53.9509 16.9325 53.9138 16.9531C53.7693 17.0191 53.4556 17.143 53.3524 17.2998C53.3111 17.3618 53.274 17.5558 53.2368 17.6177C53.1873 17.7003 52.985 17.7952 52.9396 17.8778C52.9024 17.9438 52.8034 18.0511 52.7084 18.0759C52.5722 18.1131 52.4896 18.2864 52.403 18.3071C52.3287 18.3236 52.2915 18.4392 52.2172 18.4474C51.9035 18.4846 51.9117 18.5465 51.7879 18.6208C51.7342 18.6538 51.8498 18.7116 51.7961 18.7405C51.7012 18.79 51.6104 18.8396 51.5154 18.8809C51.3999 18.9345 51.0531 18.918 51.0242 19.013C51.0036 19.0873 51.0407 19.0873 50.8963 19.1492C50.7889 19.1946 50.6816 19.0914 50.5825 19.1657C50.5454 19.1946 50.566 19.24 50.5536 19.273C50.533 19.3225 50.4835 19.3556 50.4628 19.3721C50.4422 19.3886 50.4752 19.434 50.4587 19.4464C50.4257 19.4712 50.3761 19.4588 50.3472 19.4794C50.3018 19.5124 50.3596 19.628 50.3225 19.661C50.3018 19.6776 50.2812 19.6941 50.2647 19.7106C50.1821 19.7766 50.2729 19.8757 50.2275 19.9046C50.1986 19.9252 51.0077 19.8633 51.3173 19.8138C55.7136 18.9675 59.0325 15.0996 59.0366 10.4557C59.0366 10.3772 58.8591 10.4144 58.8508 10.5011C58.8302 10.7157 58.599 10.7116 58.5578 11.0253C58.5412 11.1698 58.0253 10.9882 57.9303 10.6992C57.9097 10.6373 57.9097 10.4474 57.823 10.3772C57.728 10.2947 57.5464 10.3318 57.5258 10.2286C57.5093 10.1461 57.6042 9.97683 57.5877 9.88602C57.5629 9.72915 57.4845 9.2049 57.3689 8.87879C57.3029 8.69716 57.179 8.67239 57.1666 8.57332C57.1419 8.40408 57.2203 8.1564 57.1997 8.00366C57.1501 7.6404 57.0222 7.54133 57.1749 7.14917C57.2203 7.02946 57.0428 6.95516 57.0263 6.83545C56.985 6.47632 56.9933 6.22864 56.8653 5.99747C56.8653 5.99334 56.9809 5.89014 57.0593 5.90666C57.0841 5.91078 57.0387 5.22554 57.1419 5.18013C57.2203 5.14711 57.0634 5.1017 56.9891 5.03153C56.9437 4.98612 56.9767 4.90356 56.9726 4.89943C56.9355 4.8499 56.8653 4.91182 56.824 4.88292C56.7745 4.84577 56.7786 4.62286 56.7456 4.61047C56.7167 4.59809 56.5185 4.466 56.4896 4.5114C56.469 4.5403 56.6341 4.68891 56.6424 4.73431C56.6754 4.87054 56.7208 5.06868 56.9602 5.37415C57.0717 5.5145 56.9933 5.71264 56.9809 5.79933C56.9809 5.81171 56.824 5.94381 56.8158 5.93142C56.7415 5.8241 56.4938 5.91491 56.4277 5.81171C56.3576 5.70026 56.3121 5.50624 56.2544 5.40717C56.147 5.22967 55.9736 5.11821 55.9076 4.96961C55.8911 4.93658 56.1883 4.83751 56.1759 4.80449C56.114 4.63524 55.8333 4.34216 55.6806 4.3628C55.3462 4.41233 55.4742 4.21006 55.5402 4.14401C55.5609 4.12337 55.5732 4.02017 55.404 4.11512C55.3999 4.11512 55.371 4.07384 55.3957 4.06558C55.5443 3.99954 55.4659 3.94587 55.5031 3.88808C55.5237 3.85093 55.404 3.86331 55.3957 3.8757C55.3627 3.9211 55.2471 4.17291 55.2265 4.1564C55.1852 4.11925 55.2058 3.99953 55.2058 3.97477C55.2058 3.94587 55.0614 3.96651 55.0366 3.95C54.9871 3.91698 54.8385 4.06145 54.7972 4.03256C54.7311 3.98715 54.8508 3.82616 54.7972 3.83854C54.7476 3.85093 54.661 3.87982 54.6444 3.85506C54.6321 3.83854 54.6816 3.7725 54.6651 3.76011C54.6444 3.74773 54.566 3.78075 54.5619 3.76011C54.5578 3.7436 54.6073 3.70645 54.6032 3.68994C54.599 3.66517 54.566 3.67343 54.5578 3.65279C54.5412 3.62389 54.5454 3.57023 54.5495 3.55784C54.566 3.50418 54.6857 3.45052 54.6857 3.42575C54.6857 3.37621 54.6403 3.41336 54.5908 3.42988C54.5247 3.45052 54.5412 3.36383 54.4174 3.45877C54.3803 3.48767 54.4546 3.31842 54.4174 3.32668C54.2151 3.3597 54.1821 3.2854 54.1697 3.24824C54.1615 3.2276 54.2605 3.19458 54.244 3.11615C54.2358 3.06249 54.3555 2.94278 54.4835 3.0501C54.5082 3.06661 54.5454 3.03359 54.5701 3.05836C54.6321 3.11615 54.727 3.21522 54.8013 3.23586C54.9251 3.26888 55.0572 3.40098 55.115 3.3886C55.1398 3.38447 55.082 3.33906 55.0861 3.30191C55.0861 3.26063 55.1357 3.2276 55.115 3.22348C54.9417 3.19871 54.6568 3.02946 54.6114 2.99231C54.5949 2.97993 54.6733 2.8726 54.6568 2.86022C54.6279 2.83958 54.4091 2.92214 54.3803 2.9015C54.3348 2.86847 54.2316 2.88086 54.1862 2.84783C53.9055 2.64556 53.2203 2.13369 53.0758 1.8695C53.0428 1.80758 53.0015 2.20387 52.9685 2.13782C52.8529 1.90666 52.63 1.8241 52.4855 1.77869C52.4236 1.75805 52.564 1.61357 52.3452 1.56403C51.9737 1.47735 52.0768 1.27095 51.9241 1.22967C51.8828 1.22141 51.6352 1.2792 51.5939 1.27095C51.565 1.26269 51.7384 1.48147 51.6682 1.49799C51.6228 1.51037 51.5361 1.4856 51.4783 1.49799C51.4205 1.51037 51.3957 1.55578 51.3214 1.53927C51.2595 1.52688 51.2265 1.46083 51.1646 1.43194C51.0985 1.39892 51.0242 1.43194 51.0242 1.36176C51.0242 1.27095 51.276 1.19252 51.1852 1.17601C51.1398 1.16775 51.1563 1.06042 51.1068 1.05217C50.9788 1.03153 50.8921 1.18426 50.7931 1.22141C50.7518 1.23792 50.5908 1.21728 50.533 1.20903C50.5082 1.20903 50.5784 1.11409 50.5495 1.05629C50.5165 0.990246 50.3803 0.961351 50.3514 0.957223C50.0707 0.932455 50.0583 1.21728 49.6702 1.10583C49.34 1.01089 48.9437 1.18013 48.5805 1.18013C48.4731 1.18013 48.2667 1.11821 48.1635 1.13473C47.7507 1.19252 47.4164 1.36176 47.0407 1.42781C46.8054 1.47322 46.6444 1.35764 46.4257 1.42781C46.3183 1.46496 46.211 1.50624 46.0996 1.54339C46.1284 1.69613 46.1697 2.0016 46.2399 2.08829C46.2853 2.14608 46.5908 2.11718 46.6527 2.17497C46.7311 2.24928 46.8178 2.42678 46.9994 2.51759C47.0861 2.55887 47.2182 2.57539 47.3834 2.51759C47.5154 2.47219 47.47 2.67859 47.7796 2.60841C47.9076 2.57951 48.0273 2.54649 48.18 2.51347C48.18 2.49695 48.1842 2.46806 48.1966 2.43503C48.2048 2.40614 48.1635 2.44329 48.1429 2.41027C48.1264 2.3855 48.2213 2.29468 48.2048 2.25753C48.1842 2.20387 48.0521 2.19974 48.0521 2.17085C48.0521 2.12131 48.0892 2.14195 48.1016 2.12544C48.114 2.10067 48.1099 2.05939 48.18 2.05939M49.1088 1.50624C49.1088 1.50624 49.1543 1.46909 49.1749 1.47322C49.2038 1.47322 49.2244 1.5145 49.2533 1.50624C49.2822 1.49799 49.3029 1.46083 49.3359 1.46909C49.3606 1.46909 49.3524 1.44845 49.373 1.44432C49.4638 1.42781 49.5051 1.44432 49.5588 1.46083C49.6207 1.48147 49.6991 1.45258 49.6744 1.4856C49.6413 1.53101 49.5547 1.57642 49.4556 1.65072C49.4391 1.66311 49.3895 1.5888 49.3276 1.63834C49.2616 1.68787 49.34 1.75805 49.3235 1.77043C49.274 1.80758 49.1997 1.79107 49.1584 1.81171C49.1419 1.81997 49.2368 1.98921 49.2244 2.0016C49.2162 2.00985 48.9726 1.81997 48.9313 1.87776C48.9107 1.90666 49.1171 1.9273 49.1254 1.9727C49.1254 1.99747 49.0469 2.06352 49.0428 2.06352C48.9809 2.06352 48.8034 2.08416 48.7662 1.99334C48.7538 1.96445 48.7249 2.02224 48.7002 2.03049C48.6754 2.03875 48.6465 1.98921 48.6383 1.97683C48.6135 1.95206 48.696 1.92317 48.6878 1.88189C48.6878 1.88189 48.7373 1.9727 48.7745 1.96032C48.7951 1.95619 49.0263 1.99334 49.0056 1.96032C48.9685 1.90666 48.8199 1.90666 48.9148 1.82822C48.9767 1.77869 49.0222 1.7952 49.0304 1.77456C49.0304 1.77456 49.1501 1.73741 49.179 1.71264C49.1914 1.70026 49.1295 1.68787 49.1254 1.68375C49.1088 1.66311 48.9685 1.70026 48.9479 1.70026C48.9024 1.70026 48.8694 1.77043 48.8405 1.76218C48.7827 1.74566 48.8158 1.67962 48.8158 1.67549C48.824 1.60531 48.8777 1.51037 48.9396 1.55165C48.9809 1.57642 48.9726 1.67549 49.0263 1.67136C49.0345 1.67136 49.0387 1.65072 49.0387 1.62183C49.0387 1.62183 49.0758 1.62183 49.1254 1.61357C49.1501 1.61357 49.1625 1.67136 49.212 1.66723C49.2657 1.65898 49.2368 1.60531 49.2533 1.60119C49.34 1.5888 49.4102 1.56403 49.3565 1.51863C49.3565 1.51863 49.3194 1.51863 49.2946 1.53101C49.2781 1.53927 49.2781 1.56403 49.2616 1.57229C49.2492 1.57642 49.2409 1.58055 49.2286 1.58467C49.1377 1.60944 49.0428 1.57642 49.0469 1.56816C49.0469 1.55991 49.0469 1.54752 49.0552 1.53927C49.0676 1.50211 49.1006 1.50211 49.1171 1.50211M47.7466 1.74154C47.7466 1.74154 47.7466 1.71677 47.7342 1.7209C47.6764 1.72915 47.6888 1.8241 47.6475 1.91078C47.6352 1.93968 47.6806 1.93555 47.6929 1.95619C47.726 1.99334 47.7507 2.05526 47.8127 2.05113C47.887 2.04288 47.9241 2.01398 47.9406 1.96857C47.9489 1.94793 48.1594 2.02224 48.1635 2.0016C48.1635 1.99747 48.1635 1.9727 48.1635 1.94381C48.1635 1.93142 48.3121 2.02637 48.3287 2.00573C48.3287 2.00573 48.4071 1.93968 48.4566 1.94793C48.5103 1.95619 48.5392 2.03462 48.5557 2.01811C48.564 2.00985 48.5516 1.98921 48.5309 1.96445C48.5268 1.96032 48.5309 1.91078 48.5309 1.85299C48.5309 1.84886 48.5516 1.7663 48.5887 1.75805C48.6259 1.74566 48.6795 1.80758 48.7002 1.7952C48.7373 1.77043 48.7126 1.73741 48.7126 1.72915C48.7126 1.71264 48.5268 1.76218 48.5227 1.74566C48.5185 1.70026 48.5062 1.66723 48.4773 1.67136C48.4484 1.67136 48.4938 1.75392 48.4938 1.81171C48.4938 1.8695 48.4566 1.90253 48.4525 1.89427C48.4401 1.87776 48.4277 1.8695 48.4236 1.86125C48.4153 1.83648 48.3576 1.91078 48.3245 1.89427C48.275 1.8695 48.2544 1.75805 48.242 1.74566C48.2296 1.72915 48.2255 1.84474 48.2255 1.84061C48.2255 1.81584 48.1512 1.81171 48.147 1.79107C48.1429 1.74566 48.1305 1.7209 48.114 1.74566C48.0025 1.91491 47.9489 1.8241 47.9489 1.81171C47.9489 1.78694 47.9282 1.77456 47.9241 1.76218C47.9076 1.7209 47.8828 1.692 47.825 1.692C47.8127 1.692 47.7507 1.74154 47.7384 1.74154M47.5072 1.93968C47.5774 2.03049 47.4411 1.93142 47.4824 2.02224C47.4907 2.03875 47.5072 2.04288 47.5196 2.05939C47.5196 2.06352 47.5732 2.05939 47.5567 2.08416C47.5485 2.10067 47.5196 2.10893 47.532 2.11718C47.5485 2.12957 47.6517 2.0759 47.6641 2.09654C47.6682 2.11305 47.6104 2.19561 47.6228 2.20387C47.6352 2.21213 47.7012 2.16259 47.7177 2.16672C47.7301 2.16672 47.7673 2.08003 47.7796 2.08416C47.7961 2.08829 47.8168 2.09241 47.8292 2.09654C47.8539 2.1048 47.92 2.05526 47.9324 2.07177C47.9406 2.08416 47.8539 2.08829 47.8416 2.11305C47.825 2.15021 47.7961 2.17497 47.7838 2.22038C47.7838 2.23276 47.7218 2.22038 47.7218 2.23276C47.7218 2.24928 47.7218 2.29881 47.7301 2.31945C47.7384 2.33596 47.7755 2.32771 47.7879 2.33184C47.8003 2.34422 47.7879 2.36486 47.7879 2.36899C47.7879 2.3855 47.6599 2.36486 47.6599 2.37724C47.6599 2.42265 47.6888 2.47219 47.6723 2.48457C47.6517 2.49695 47.5898 2.48457 47.5815 2.42678C47.5815 2.4144 47.5526 2.44742 47.5443 2.43916C47.532 2.42265 47.5402 2.36486 47.5237 2.36486C47.4742 2.36073 47.4164 2.49695 47.3834 2.44742C47.3751 2.43916 47.371 2.42678 47.3627 2.41027C47.3545 2.39788 47.1192 2.40614 47.115 2.38963C47.1109 2.37312 47.0738 2.3112 47.0738 2.29056C47.0738 2.26166 47.3049 2.31532 47.3173 2.2823C47.3173 2.2823 47.3462 2.24928 47.3173 2.23689C47.276 2.21625 47.1687 2.208 47.1687 2.19561C47.1687 2.17085 47.243 2.16672 47.2513 2.13782C47.2595 2.11718 47.243 2.05939 47.2471 2.03462C47.2471 2.02637 47.1481 1.99334 47.1398 2.05113C47.1315 2.10893 47.0572 2.11718 47.0531 2.11718C46.9953 2.12957 47.0036 2.08416 47.0077 2.0759C47.0118 2.05526 47.0325 1.99334 47.0738 1.96857C47.1604 1.91491 47.2967 1.89014 47.3049 1.8695C47.3173 1.84061 47.3792 1.84061 47.4122 1.8695C47.4246 1.88189 47.4122 1.91491 47.4246 1.92317C47.4411 1.93142 47.4865 1.92317 47.4989 1.94381" fill="#C6CFFF"/>
<path d="M49.5379 0.899897C44.2913 0.899897 40.0229 5.16821 40.0229 10.4149C40.0229 15.6615 44.2913 19.9298 49.5379 19.9298C54.7846 19.9298 59.0529 15.6615 59.0529 10.4149C59.0529 5.16821 54.7846 0.899897 49.5379 0.899897ZM49.5379 20.8256C43.7959 20.8256 39.123 16.1569 39.123 10.4149C39.123 4.67286 43.7959 0 49.5379 0C55.2799 0 59.9528 4.67286 59.9528 10.4149C59.9528 16.1569 55.2799 20.8256 49.5379 20.8256Z" fill="#C6CFFF"/>
<path d="M19.7859 8.14873H13.3215V11.0135H14.6961V15.5048H9.66002C8.50006 15.5048 7.47633 15.0672 6.6012 14.1879C5.63938 13.2344 5.15641 12.0538 5.15641 10.6544C5.15641 9.25502 5.63526 8.08268 6.6012 7.12087C7.47633 6.24987 8.50006 5.81643 9.66002 5.81643H17.8829L19.7075 1.41602H9.66002C6.95208 1.41602 4.6528 2.36132 2.76632 4.2478C0.966525 6.03934 0.0625 8.1735 0.0625 10.6544C0.0625 13.1353 0.962397 15.2695 2.76632 17.0651C4.6528 18.9599 6.95208 19.9052 9.66002 19.9052H19.7859V8.14873Z" fill="white"/>
<path d="M64.97 25.5649H62.1382V26.989H62.7904V28.7558H60.5985C60.0949 28.7558 59.6532 28.5618 59.2693 28.182C58.8524 27.7692 58.646 27.2573 58.646 26.6464C58.646 26.0355 58.8524 25.5277 59.2693 25.1108C59.6491 24.7351 60.0949 24.537 60.5985 24.537H64.1609L64.9494 22.6299H60.5985C59.422 22.6299 58.4272 23.0468 57.6098 23.8641C56.8297 24.6402 56.4375 25.5773 56.4375 26.6505C56.4375 27.7238 56.8255 28.6526 57.6098 29.4286C58.4272 30.2501 59.422 30.6629 60.5985 30.6629H64.97V26.989V25.5649Z" fill="black"/>
<path d="M79.2747 25.5688H76.4429V26.9929H77.0951V28.7597H74.8991C74.3954 28.7597 73.9537 28.5657 73.574 28.1859C73.157 27.7731 72.9465 27.2612 72.9465 26.6503C72.9465 26.0394 73.157 25.5316 73.574 25.1147C73.9537 24.7391 74.3954 24.5409 74.8991 24.5409H78.4656L79.2541 22.6338H74.8991C73.7267 22.6338 72.7319 23.0507 71.9145 23.8681C71.1343 24.6441 70.7422 25.5812 70.7422 26.6544C70.7422 27.7277 71.1302 28.6565 71.9145 29.4326C72.7319 30.254 73.7267 30.6668 74.8991 30.6668H79.2747V25.5688Z" fill="black"/>
</g>
<defs>
<clipPath id="clip0_458_6772">
<rect width="120.607" height="32" fill="white"/>
</clipPath>
</defs>
</svg>
