<svg width="109" height="32" viewBox="0 0 109 32" fill="none" xmlns="http://www.w3.org/2000/svg">
<g clip-path="url(#clip0_458_6765)">
<path d="M20.5122 19.6278L24.4209 30.5892C24.4607 30.6686 24.4607 30.7903 24.4607 30.8723C24.4607 31.3168 24.1378 31.6371 23.6536 31.6371H16.5612C16.1167 31.6371 16.0372 31.2348 15.9156 30.8301L12.5308 20.9961C11.6443 20.9961 10.7975 20.9961 9.91091 20.9167L8.17756 30.8301C8.09809 31.2746 7.65358 31.6371 7.21155 31.6371H0.685395C0.283098 31.6371 0 31.354 0 30.9517V30.8301L4.63387 4.47463C4.9567 2.54012 5.64209 2.09809 7.41518 1.815C9.06658 1.57411 12.2924 1.29102 15.8783 1.29102C22.2853 1.29102 27.1228 3.58808 27.1228 9.15071C27.1228 13.7846 25.0268 17.8547 20.5147 19.6278H20.5122ZM15.2749 8.18222C14.1872 8.18222 12.8164 8.22195 12.131 8.26168L11.0036 14.6686C11.4481 14.7084 11.9298 14.7084 12.4141 14.7084H13.9463C17.1299 14.7084 18.8633 13.499 18.8633 10.3154C18.8633 8.82539 17.8153 8.17973 15.2774 8.17973L15.2749 8.18222Z" fill="white"/>
<path d="M52.3099 2.58022L51.4631 7.49718C51.3812 7.9417 50.9391 8.30426 50.4946 8.30426H42.3543C40.9041 8.30426 40.3403 8.78851 40.0572 10.3182L39.5333 13.261H49.4467C49.849 13.261 50.1321 13.5441 50.1321 13.9464V14.068L49.2852 18.8236C49.2033 19.2681 48.801 19.6307 48.359 19.6307H38.4456L37.8421 22.9757C37.8024 23.2985 37.7627 23.5394 37.7627 23.7828C37.7627 24.709 38.2469 24.9921 39.4141 24.9921H47.5544C47.9567 24.9921 48.2398 25.2752 48.2398 25.6775V25.7992L47.3532 30.7162C47.2738 31.2004 46.9509 31.4413 46.4269 31.5233C44.855 31.7244 42.3965 32.0075 38.4878 32.0075C33.772 32.0075 29.4609 30.3139 29.4609 25.0368C29.4609 24.3912 29.5404 23.7058 29.6621 22.9807L31.8797 10.3257C33.2902 2.18537 38.1252 1.29883 43.8095 1.29883C47.7183 1.29883 50.1768 1.58193 51.6692 1.78307C52.1137 1.82281 52.3149 2.02396 52.3149 2.42874V2.59015L52.3099 2.58022Z" fill="white"/>
<path d="M82.0513 2.50088L72.3391 27.1652C70.7672 31.1559 67.5836 32.0002 63.7146 32.0002C59.8455 32.0002 57.0245 31.1534 56.8631 27.1652L55.7754 2.50088V2.46115C55.7754 2.01664 56.138 1.69629 56.5825 1.69629H63.3942C63.8387 1.69629 64.1193 2.05885 64.1193 2.46115L64.4024 24.7464C64.4024 25.109 64.4422 25.3101 64.765 25.3101C65.0878 25.3101 65.207 25.109 65.3287 24.7464L73.5087 2.46115C73.6702 2.05885 73.993 1.69629 74.435 1.69629H81.6093C81.9321 1.69629 82.1333 1.8577 82.1333 2.1408C82.1333 2.26248 82.0936 2.38168 82.0538 2.50337L82.0513 2.50088Z" fill="white"/>
<path d="M107.884 14.5892L107.119 18.7413C105.306 28.533 99.9053 31.9997 92.4106 31.9997C86.7288 31.9997 82.0527 28.8161 82.0527 22.0043C82.0527 20.9961 82.1744 19.9084 82.3756 18.7413L83.1404 14.5892C85.0352 4.39268 90.8784 1.29102 97.8491 1.29102C103.451 1.29102 108.207 4.23374 108.207 11.2044C108.207 12.2524 108.128 13.3798 107.884 14.5892ZM96.5603 8.50505C93.7392 8.50505 92.2492 10.2781 91.4421 14.5892L90.6773 18.7413C90.5159 19.7073 90.3942 20.5144 90.3942 21.2395C90.3942 23.7377 91.5216 24.7857 93.6995 24.7857C96.5205 24.7857 98.0105 23.0523 98.8176 18.7413L99.5825 14.5892C99.7439 13.6232 99.8656 12.8161 99.8656 12.091C99.8656 9.59274 98.7381 8.50505 96.5603 8.50505Z" fill="white"/>
<path d="M66.2148 0V16.5885L72.0928 0H66.2148Z" fill="#ED1F24"/>
</g>
<defs>
<clipPath id="clip0_458_6765">
<rect width="108.205" height="32" fill="white"/>
</clipPath>
</defs>
</svg>
