<svg width="164" height="36" viewBox="0 0 164 36" fill="none" xmlns="http://www.w3.org/2000/svg">
<path d="M28.3816 35.3795V0.00683594H34.2319V14.9364C35.7044 12.6517 38.4645 11.1792 41.8387 11.1792C47.6428 11.1792 50.6802 14.8373 50.6802 20.9254V35.3795H44.8761V22.3054C44.8761 18.3568 42.9282 16.4551 39.9766 16.4551C36.3185 16.4551 34.1725 19.0237 34.1725 22.5431V35.3795H28.375H28.3816Z" fill="black"/>
<path d="M92.8398 23.6329C92.8398 16.2638 97.6403 11.1729 104.534 11.1729C111.428 11.1729 116.043 15.8808 116.043 23.2037V24.9601L98.3534 25.0063C98.7826 29.1398 100.968 31.233 104.818 31.233C108.001 31.233 110.094 29.9982 110.761 27.7598H116.136C115.138 32.897 110.86 35.9872 104.725 35.9872C97.7393 35.9872 92.8398 30.8962 92.8398 23.6262V23.6329ZM98.4987 21.302H110.292C110.292 18.0665 108.06 15.9271 104.587 15.9271C101.114 15.9271 99.0732 17.7825 98.4987 21.302Z" fill="black"/>
<path d="M134.056 28.2477C134.102 30.2946 135.627 31.5756 138.288 31.5756C140.949 31.5756 142.475 30.4795 142.475 28.7693C142.475 27.5808 141.854 26.7224 139.767 26.2469L135.535 25.2499C131.302 24.299 129.262 22.3049 129.262 18.5477C129.262 13.9388 133.158 11.1787 138.579 11.1787C144 11.1787 147.42 14.2227 147.467 18.7855H141.953C141.907 16.7913 140.573 15.5037 138.341 15.5037C136.109 15.5037 134.729 16.547 134.729 18.31C134.729 19.6439 135.773 20.4957 137.773 20.9711L142.006 21.9682C145.955 22.8728 147.949 24.6754 147.949 28.2939C147.949 33.0481 143.908 35.9997 138.103 35.9997C132.299 35.9997 128.549 32.8632 128.549 28.2477H134.062H134.056Z" fill="black"/>
<path d="M125.406 0V35.3727H119.654V4.31181L123.966 0H125.406Z" fill="black"/>
<path d="M3.03742 30.817V32.3423H4.56273V30.817H3.03742ZM13.741 0.621094H0V32.3423H1.51871V30.817H3.03742V29.2983H4.56273V27.7796H6.08144V23.3951H13.741C17.1152 23.3951 19.9347 22.2792 21.9354 20.3511C23.4476 18.905 24.4908 16.9967 24.9597 14.7583C25.1446 13.8801 25.2436 12.9556 25.2436 11.985C25.2436 5.19042 20.7271 0.621094 13.741 0.621094ZM18.8716 11.9388C18.8716 12.7576 18.766 13.5037 18.5613 14.1706C17.8217 16.6006 15.7352 17.974 12.4534 17.974H6.08144V6.04221H12.5525C16.5737 6.04221 18.8518 8.11559 18.8716 11.8926V11.9388ZM1.51871 32.3423V33.861H3.03742V32.3423H1.51871ZM0 33.861V35.3797H1.51871V33.861H0ZM4.56273 29.2983V30.817H6.08144V29.2983H4.56273Z" fill="black"/>
<path d="M78.1294 23.6395L69.0502 35.3797H62.9688L72.0546 23.6395L65.61 11.8926H71.6914L78.1294 23.6395Z" fill="#ED1F24"/>
<path d="M78.1289 23.6395L84.5669 35.3797H90.6484L84.2037 23.6395L93.2896 11.8926H87.2082L78.1289 23.6395Z" fill="#ED1F24"/>
<path d="M61.0463 11.8926H55.2422V35.3797H61.0463V11.8926Z" fill="black"/>
<path d="M57.0757 5.89699V8.05621C55.6627 7.69304 54.5468 6.57712 54.1836 5.16406H56.3362C56.5145 5.4678 56.7654 5.72531 57.0757 5.89699Z" fill="#ED1F24"/>
<path d="M62.1074 4.1534C62.1074 4.50336 62.0612 4.84011 61.982 5.15706C61.6188 6.57012 60.5029 7.68604 59.0898 8.04921V5.8966C59.3936 5.71832 59.6511 5.4674 59.8294 5.15706C60.0011 4.85992 60.1001 4.51657 60.1001 4.1534C60.1001 3.79023 60.0011 3.44027 59.8294 3.14974C59.6511 2.846 59.4002 2.58846 59.0898 2.41018V0.250977C60.5029 0.614146 61.6188 1.73007 61.982 3.14313C62.0612 3.46668 62.1074 3.80343 62.1074 4.14679V4.1534Z" fill="#ED1F24"/>
</svg>
