<svg width="65" height="59" viewBox="0 0 65 59" fill="none" xmlns="http://www.w3.org/2000/svg">
<g filter="url(#filter0_d_514_5234)">
<path d="M11.8809 6.72C11.8809 6.32236 12.2032 6 12.6009 6H47.1609C47.5585 6 47.8809 6.32236 47.8809 6.72V42H12.6009C12.2032 42 11.8809 41.6776 11.8809 41.28V6.72Z" fill="#FEEDED"/>
<path d="M19.8697 30.3723V31.132H20.6293V30.3723H19.8697ZM25.1941 15.3604H18.3613V31.132H19.1173V30.3723H19.8733V29.6163H20.6329V28.8604H21.3889V26.6823H25.1977C26.8753 26.6823 28.2757 26.128 29.2729 25.1704C30.0253 24.4504 30.5437 23.5036 30.7777 22.3912C30.8713 21.9556 30.9181 21.4947 30.9181 21.0123C30.9181 17.6355 28.6717 15.3639 25.2013 15.3639L25.1941 15.3604ZM27.7429 20.9871C27.7429 21.3939 27.6889 21.7647 27.5881 22.0959C27.2209 23.3055 26.1841 23.9859 24.5533 23.9859H21.3853V18.0531H24.6037C26.6017 18.0531 27.7357 19.0828 27.7465 20.962V20.9836L27.7429 20.9871ZM19.1173 31.132V31.8879H19.8733V31.132H19.1173ZM18.3613 31.8843V32.6404H19.1173V31.8843H18.3613ZM20.6293 29.6163V30.3723H21.3853V29.6163H20.6293Z" fill="black"/>
<path d="M33.8626 26.8007L29.3482 32.6399H26.3242L30.8422 26.8007L29.8774 25.0403C30.4894 24.3239 30.9142 23.4419 31.1194 22.4627C31.1554 22.2971 31.1842 22.1279 31.2058 21.9551L33.8626 26.8007Z" fill="#ED1F24"/>
<path d="M33.8613 26.8047L37.0617 32.6403H40.0857L36.8817 26.8047L41.3997 20.9619H38.3757L33.8613 26.8047Z" fill="#ED1F24"/>
</g>
<defs>
<filter id="filter0_d_514_5234" x="0.000858784" y="-5.88" width="64.8" height="64.8" filterUnits="userSpaceOnUse" color-interpolation-filters="sRGB">
<feFlood flood-opacity="0" result="BackgroundImageFix"/>
<feColorMatrix in="SourceAlpha" type="matrix" values="0 0 0 0 0 0 0 0 0 0 0 0 0 0 0 0 0 0 127 0" result="hardAlpha"/>
<feOffset dx="2.52" dy="2.52"/>
<feGaussianBlur stdDeviation="7.2"/>
<feColorMatrix type="matrix" values="0 0 0 0 0.137255 0 0 0 0 0.121569 0 0 0 0 0.12549 0 0 0 0.2 0"/>
<feBlend mode="normal" in2="BackgroundImageFix" result="effect1_dropShadow_514_5234"/>
<feBlend mode="normal" in="SourceGraphic" in2="effect1_dropShadow_514_5234" result="shape"/>
</filter>
</defs>
</svg>
