<svg width="30" height="28" viewBox="0 0 30 28" fill="none" xmlns="http://www.w3.org/2000/svg">
<g clip-path="url(#clip0_437_9725)">
<g clip-path="url(#clip1_437_9725)">
<g clip-path="url(#clip2_437_9725)">
<mask id="mask0_437_9725" style="mask-type:luminance" maskUnits="userSpaceOnUse" x="0" y="0" width="30" height="28">
<path d="M30 0H0V28H30V0Z" fill="white"/>
</mask>
<g mask="url(#mask0_437_9725)">
<path d="M20.9252 10.5H28.6742C29.4063 10.5 29.9998 11.0955 29.9998 11.83V18.9119C29.9998 21.6115 27.8186 23.8 25.128 23.8H25.1049C22.4143 23.8004 20.2328 21.6122 20.2324 18.9126C20.2324 18.9124 20.2324 18.9128 20.2324 18.9126V11.1951C20.2324 10.8112 20.5426 10.5 20.9252 10.5Z" fill="#5059C9"/>
<path d="M26.1629 9.0998C27.8968 9.0998 29.3025 7.6895 29.3025 5.9498C29.3025 4.2101 27.8968 2.7998 26.1629 2.7998C24.429 2.7998 23.0234 4.2101 23.0234 5.9498C23.0234 7.6895 24.429 9.0998 26.1629 9.0998Z" fill="#5059C9"/>
<path d="M16.3961 9.10001C18.9007 9.10001 20.931 7.0629 20.931 4.55001C20.931 2.03711 18.9007 0 16.3961 0C13.8916 0 11.8613 2.03711 11.8613 4.55001C11.8613 7.0629 13.8916 9.10001 16.3961 9.10001Z" fill="#7B83EB"/>
<path d="M22.4413 10.5H9.65014C8.92676 10.518 8.35452 11.1203 8.37131 11.8461V19.9234C8.27029 24.279 11.7048 27.8934 16.0458 28C20.3867 27.8934 23.8212 24.279 23.7202 19.9234V11.8461C23.7369 11.1203 23.1647 10.518 22.4413 10.5Z" fill="#7B83EB"/>
<path opacity="0.1" d="M16.7436 10.5V21.819C16.7401 22.3381 16.4266 22.8044 15.9482 23.002C15.7959 23.0666 15.6322 23.1 15.4668 23.1H8.98541C8.89471 22.869 8.81099 22.638 8.74122 22.4C8.497 21.5968 8.37239 20.7618 8.37145 19.922V11.844C8.35468 11.1193 8.92597 10.518 9.64819 10.5H16.7436Z" fill="black"/>
<path opacity="0.2" d="M16.0459 10.5V22.519C16.0459 22.6849 16.0127 22.8492 15.9482 23.002C15.7513 23.482 15.2865 23.7965 14.7692 23.8H9.31332C9.19471 23.569 9.08309 23.338 8.98541 23.1C8.88773 22.862 8.81099 22.638 8.74122 22.4C8.497 21.5968 8.37239 20.7618 8.37145 19.922V11.844C8.35468 11.1193 8.92597 10.518 9.64819 10.5H16.0459Z" fill="black"/>
<path opacity="0.2" d="M16.0459 10.5V21.119C16.0406 21.8243 15.4721 22.3947 14.7692 22.4H8.74122C8.497 21.5968 8.37239 20.7618 8.37145 19.922V11.844C8.35468 11.1193 8.92597 10.518 9.64819 10.5H16.0459Z" fill="black"/>
<path opacity="0.2" d="M15.3482 10.5V21.119C15.3429 21.8243 14.7744 22.3947 14.0715 22.4H8.74122C8.497 21.5968 8.37239 20.7618 8.37145 19.922V11.844C8.35468 11.1193 8.92597 10.518 9.64819 10.5H15.3482Z" fill="black"/>
<path opacity="0.1" d="M16.7444 6.88059V9.08559C16.6258 9.09259 16.5142 9.0996 16.3956 9.0996C16.277 9.0996 16.1654 9.0926 16.0468 9.08559C15.8113 9.06991 15.5777 9.03243 15.3491 8.9736C13.9363 8.63791 12.7691 7.64379 12.2095 6.2996C12.1133 6.07387 12.0385 5.83948 11.9863 5.59961H15.4677C16.1717 5.60228 16.7418 6.17422 16.7444 6.88059Z" fill="black"/>
<path opacity="0.2" d="M16.0462 7.58078V9.08579C15.8107 9.07011 15.5772 9.03262 15.3486 8.97379C13.9358 8.6381 12.7686 7.64399 12.209 6.2998H14.7695C15.4735 6.30247 16.0436 6.87443 16.0462 7.58078Z" fill="black"/>
<path opacity="0.2" d="M16.0462 7.58078V9.08579C15.8107 9.07011 15.5772 9.03262 15.3486 8.97379C13.9358 8.6381 12.7686 7.64399 12.209 6.2998H14.7695C15.4735 6.30247 16.0436 6.87443 16.0462 7.58078Z" fill="black"/>
<path opacity="0.2" d="M15.3486 7.5808V8.97379C13.9358 8.6381 12.7686 7.64399 12.209 6.2998H14.0718C14.7758 6.30249 15.3459 6.87444 15.3486 7.5808Z" fill="black"/>
<path d="M1.27883 6.2998H14.07C14.7763 6.2998 15.3488 6.87427 15.3488 7.58289V20.4167C15.3488 21.1253 14.7763 21.6998 14.07 21.6998H1.27883C0.572546 21.6998 0 21.1253 0 20.4167V7.58289C0 6.87427 0.57256 6.2998 1.27883 6.2998Z" fill="url(#paint0_linear_437_9725)"/>
<path d="M11.0398 11.1843H8.48276V18.1703H6.8537V11.1843H4.30859V9.8291H11.0398V11.1843Z" fill="white"/>
</g>
</g>
</g>
</g>
<defs>
<linearGradient id="paint0_linear_437_9725" x1="2.6664" y1="5.29721" x2="12.7325" y2="22.6734" gradientUnits="userSpaceOnUse">
<stop stop-color="#5A62C3"/>
<stop offset="0.5" stop-color="#4D55BD"/>
<stop offset="1" stop-color="#3940AB"/>
</linearGradient>
<clipPath id="clip0_437_9725">
<rect width="30" height="28" fill="white"/>
</clipPath>
<clipPath id="clip1_437_9725">
<rect width="30" height="28" fill="white"/>
</clipPath>
<clipPath id="clip2_437_9725">
<rect width="30" height="28" fill="white"/>
</clipPath>
</defs>
</svg>
