<svg width="30" height="30" viewBox="0 0 30 30" fill="none" xmlns="http://www.w3.org/2000/svg">
<g clip-path="url(#clip0_437_9712)">
<g clip-path="url(#clip1_437_9712)">
<g clip-path="url(#clip2_437_9712)">
<path d="M15 30C23.2843 30 30 23.2843 30 15C30 6.71573 23.2843 0 15 0C6.71573 0 0 6.71573 0 15C0 23.2843 6.71573 30 15 30Z" fill="#25D366"/>
<path d="M19.0144 16.1398L19.0085 16.1903C17.5356 15.4586 17.3848 15.3583 17.1909 15.6437C17.0592 15.8413 16.6787 16.2898 16.5587 16.4222C16.4387 16.5547 16.3246 16.5635 16.1263 16.4727C15.5357 16.2379 14.9909 15.9013 14.5166 15.4783C14.0801 15.072 13.7058 14.6035 13.4058 14.0881C13.209 13.7464 13.6202 13.701 13.9912 12.9905C14.0181 12.9353 14.0307 12.8741 14.0277 12.8128C14.0248 12.7514 14.0064 12.6917 13.9744 12.6393C13.9239 12.5383 13.5244 11.5542 13.3568 11.162C13.1892 10.7698 13.0305 10.8203 12.9068 10.8203C12.7469 10.78 12.5796 10.78 12.4197 10.8202C12.2599 10.8604 12.1125 10.9396 11.9907 11.0508C10.91 12.2391 11.1858 13.4654 12.107 14.7686C13.9253 17.1481 14.8934 17.5878 16.6648 18.1937C17.0728 18.3173 17.5037 18.3451 17.9241 18.2749C18.2028 18.2175 18.4667 18.1031 18.699 17.9387C18.9314 17.7744 19.1272 17.5637 19.2741 17.32C19.4072 17.0218 19.4492 16.6909 19.3948 16.3688C19.3451 16.2781 19.2134 16.2276 19.0129 16.1383L19.0144 16.1398Z" fill="white"/>
<path d="M21.0315 8.86417C19.9063 7.7576 18.4802 7.00666 16.9312 6.70494C15.3821 6.40322 13.7785 6.56408 12.3202 7.16746C10.8619 7.77084 9.61345 8.79006 8.73042 10.0981C7.84739 11.4061 7.36884 12.9451 7.35443 14.5232C7.35301 15.9217 7.72157 17.2958 8.42272 18.5059L7.28711 22.632L11.531 21.5212C12.748 22.1793 14.1146 22.5113 15.4979 22.4849C16.8812 22.4585 18.2342 22.0746 19.4252 21.3705C20.6162 20.6665 21.6047 19.6662 22.2947 18.467C22.9847 17.2677 23.3526 15.9104 23.3627 14.5269C23.3653 13.4794 23.1596 12.4419 22.7577 11.4747C22.3557 10.5075 21.7655 9.62979 21.0213 8.89271L21.0315 8.86417ZM22.0244 14.5034C22.0161 15.675 21.6992 16.8238 21.1057 17.8339C20.5122 18.8441 19.6631 19.6801 18.6437 20.2578C17.6244 20.8354 16.4709 21.1344 15.2993 21.1244C14.1277 21.1145 12.9794 20.7961 11.97 20.2012L11.7308 20.0549L9.21882 20.7076L9.89199 18.2666L9.73248 18.0156C8.87286 16.6302 8.55274 14.9771 8.83308 13.3709C9.11342 11.7648 9.97463 10.3178 11.2527 9.30549C12.5309 8.2932 14.1366 7.78628 15.7643 7.88125C17.3919 7.97622 18.9278 8.66645 20.0795 9.82051C20.6989 10.4326 21.1902 11.162 21.5246 11.966C21.8591 12.77 22.03 13.6326 22.0274 14.5034H22.0244Z" fill="white"/>
</g>
</g>
</g>
<defs>
<clipPath id="clip0_437_9712">
<rect width="30" height="30" fill="white"/>
</clipPath>
<clipPath id="clip1_437_9712">
<rect width="30" height="30" fill="white"/>
</clipPath>
<clipPath id="clip2_437_9712">
<rect width="30" height="30" fill="white"/>
</clipPath>
</defs>
</svg>
