<svg width="32" height="32" viewBox="0 0 32 32" fill="none" xmlns="http://www.w3.org/2000/svg">
<g clip-path="url(#clip0_686_6892)">
<path d="M16 32C24.8366 32 32 24.8366 32 16C32 7.16344 24.8366 0 16 0C7.16344 0 0 7.16344 0 16C0 24.8366 7.16344 32 16 32Z" fill="#1DBF73"/>
<path d="M19.9035 11.9085C20.8382 11.9085 21.596 11.1507 21.596 10.216C21.596 9.28121 20.8382 8.52344 19.9035 8.52344C18.9687 8.52344 18.2109 9.28121 18.2109 10.216C18.2109 11.1507 18.9687 11.9085 19.9035 11.9085Z" fill="white"/>
<path d="M21.6708 13.0189H13.9231V12.5112C13.9231 11.514 14.9202 11.4951 15.4279 11.4951C16.0106 11.4951 16.2745 11.5518 16.2745 11.5518V8.80548C15.8627 8.75417 15.448 8.72913 15.033 8.73052C13.4154 8.73052 10.4246 9.18153 10.4246 12.605V13.0403H9.01367V15.5794H10.4246V20.9398H9.10816V23.4789H15.4644V20.9373H13.9218V15.5769H18.1516V20.9373H16.837V23.4764H22.9879V20.9373H21.6708V13.0189Z" fill="white"/>
</g>
<defs>
<clipPath id="clip0_686_6892">
<rect width="32" height="32" fill="white"/>
</clipPath>
</defs>
</svg>
