<svg width="32" height="32" viewBox="0 0 32 32" fill="none" xmlns="http://www.w3.org/2000/svg">
<g clip-path="url(#clip0_686_6884)">
<path d="M16 31.353C24.6295 31.353 31.625 24.4791 31.625 15.9998C31.625 7.52038 24.6295 0.646484 16 0.646484C7.37056 0.646484 0.375 7.52038 0.375 15.9998C0.375 24.4791 7.37056 31.353 16 31.353Z" fill="#29B2FE"/>
<g clip-path="url(#clip1_686_6884)">
<path d="M18.4837 10L19.9492 12.0556L27.3592 10H18.4837ZM10.7796 26L14.7875 22.0814L12.3747 19.4883L10.7779 26H10.7796ZM17.8726 10L15.7295 11.926L19.3347 12.0608L17.8726 10ZM9.53996 10L10.3139 11.5758L14.5564 11.8402L9.53996 10ZM11.8162 18.1821L14.9486 12.334L5.84375 11.842L11.8127 18.1821H11.8162ZM12.1804 18.5515L15.1377 21.7312L18.4032 18.5305L19.417 12.5774L15.4371 12.3655L12.1769 18.5515H12.1804Z" fill="white"/>
</g>
</g>
<defs>
<clipPath id="clip0_686_6884">
<rect width="32" height="32" fill="white"/>
</clipPath>
<clipPath id="clip1_686_6884">
<rect width="21.5154" height="16" fill="white" transform="translate(5.84375 10)"/>
</clipPath>
</defs>
</svg>
