<svg width="30" height="30" viewBox="0 0 30 30" fill="none" xmlns="http://www.w3.org/2000/svg">
<g clip-path="url(#clip0_697_6339)">
<g clip-path="url(#clip1_697_6339)">
<g clip-path="url(#clip2_697_6339)">
<path d="M15 30C23.2843 30 30 23.2843 30 15C30 6.71573 23.2843 0 15 0C6.71573 0 0 6.71573 0 15C0 23.2843 6.71573 30 15 30Z" fill="white"/>
<path d="M15.0008 29.6998C23.1194 29.6998 29.7008 23.1184 29.7008 14.9998C29.7008 6.88122 23.1194 0.299805 15.0008 0.299805C6.88219 0.299805 0.300781 6.88122 0.300781 14.9998C0.300781 23.1184 6.88219 29.6998 15.0008 29.6998Z" stroke="#DBDBDB" stroke-width="0.6"/>
<path d="M11.2924 12.6084H8.28102C8.21736 12.6084 8.15632 12.6337 8.11131 12.6787C8.0663 12.7237 8.04102 12.7847 8.04102 12.8484V22.5222C8.04102 22.5858 8.0663 22.6469 8.11131 22.6919C8.15632 22.7369 8.21736 22.7622 8.28102 22.7622H11.2924C11.3561 22.7622 11.4171 22.7369 11.4621 22.6919C11.5071 22.6469 11.5324 22.5858 11.5324 22.5222V12.8502C11.5327 12.8185 11.5266 12.7871 11.5147 12.7578C11.5027 12.7285 11.4851 12.7018 11.4628 12.6793C11.4405 12.6568 11.4139 12.639 11.3847 12.6268C11.3554 12.6147 11.3241 12.6084 11.2924 12.6084Z" fill="#0056B3"/>
<path d="M9.78814 7.7998C9.39543 7.7998 9.01155 7.91626 8.68504 8.13445C8.35853 8.35263 8.10406 8.66274 7.95381 9.02556C7.80355 9.38838 7.76427 9.78761 7.84093 10.1728C7.91758 10.5579 8.10673 10.9117 8.38446 11.1893C8.66218 11.4669 9.016 11.656 9.40117 11.7325C9.78634 11.8091 10.1856 11.7697 10.5483 11.6193C10.9111 11.4689 11.2211 11.2144 11.4392 10.8878C11.6573 10.5612 11.7737 10.1773 11.7735 9.7846C11.7726 9.25839 11.5631 8.75401 11.1909 8.38198C10.8188 8.00995 10.3143 7.8006 9.78814 7.7998Z" fill="#0056B3"/>
<path d="M18.953 12.3689C18.4588 12.359 17.9681 12.4528 17.5124 12.644C17.0567 12.8353 16.646 13.1199 16.307 13.4795V12.8513C16.307 12.8198 16.3008 12.7885 16.2887 12.7594C16.2766 12.7303 16.259 12.7038 16.2367 12.6816C16.2144 12.6593 16.1879 12.6416 16.1588 12.6295C16.1297 12.6175 16.0985 12.6113 16.067 12.6113H13.1834C13.1518 12.6113 13.1206 12.6175 13.0915 12.6295C13.0624 12.6416 13.0359 12.6593 13.0137 12.6816C12.9914 12.7038 12.9737 12.7303 12.9616 12.7594C12.9496 12.7885 12.9434 12.8198 12.9434 12.8513V22.5251C12.9434 22.5887 12.9686 22.6498 13.0137 22.6948C13.0587 22.7398 13.1197 22.7651 13.1834 22.7651H16.1882C16.2518 22.7651 16.3129 22.7398 16.3579 22.6948C16.4029 22.6498 16.4282 22.5887 16.4282 22.5251V17.7389C16.4282 16.1261 16.8662 15.4979 17.9882 15.4979C19.2128 15.4979 19.3082 16.5053 19.3082 17.8223V22.5257C19.3082 22.5893 19.3334 22.6504 19.3785 22.6954C19.4235 22.7404 19.4845 22.7657 19.5482 22.7657H22.5542C22.6178 22.7657 22.6789 22.7404 22.7239 22.6954C22.7689 22.6504 22.7942 22.5893 22.7942 22.5257V17.2193C22.8008 14.8205 22.3436 12.3689 18.953 12.3689Z" fill="#0056B3"/>
</g>
</g>
</g>
<defs>
<clipPath id="clip0_697_6339">
<rect width="30" height="30" rx="15" fill="white"/>
</clipPath>
<clipPath id="clip1_697_6339">
<rect width="30" height="30" fill="white"/>
</clipPath>
<clipPath id="clip2_697_6339">
<rect width="30" height="30" fill="white"/>
</clipPath>
</defs>
</svg>
