<svg width="32" height="32" viewBox="0 0 32 32" fill="none" xmlns="http://www.w3.org/2000/svg">
<g clip-path="url(#clip0_686_6877)">
<path d="M16 31.353C24.6295 31.353 31.625 24.4791 31.625 15.9998C31.625 7.52038 24.6295 0.646484 16 0.646484C7.37056 0.646484 0.375 7.52038 0.375 15.9998C0.375 24.4791 7.37056 31.353 16 31.353Z" fill="black"/>
<path d="M16 1.14648C24.3616 1.14648 31.125 7.805 31.125 16C31.1249 24.1949 24.3615 30.8535 16 30.8535C7.63847 30.8535 0.875133 24.1949 0.875 16C0.875 7.805 7.63839 1.14649 16 1.14648Z" stroke="white" stroke-opacity="0.2"/>
<path d="M21.595 11.3564C18.9595 11.3564 17.4841 13.074 17.0617 14.8423C16.5831 13.9413 16.2283 12.7361 15.9524 11.6155H12.309V16.1487C12.309 17.7931 11.56 19.0094 10.0959 19.0094C8.63167 19.0094 7.79261 17.7931 7.79261 16.1487L7.80948 11.6155H5.70898V16.1487C5.70898 17.4721 6.13698 18.6716 6.91973 19.5275C7.72498 20.4116 8.82311 20.8734 10.0958 20.8734C12.6299 20.8734 14.3981 18.9306 14.3981 16.1487V13.1022C14.6628 14.1046 15.2935 16.0305 16.4986 17.7199L15.3724 24.134H17.5066L18.2499 19.5895C18.4921 19.7923 18.7512 19.9724 19.027 20.1358C19.7422 20.5863 20.5588 20.8397 21.4035 20.8678C21.4035 20.8678 21.533 20.8734 21.6006 20.8734C24.2135 20.8734 26.2915 18.8518 26.2915 16.1206C26.2915 13.3894 24.2079 11.3565 21.595 11.3565M21.595 19.0039C19.9787 19.0039 18.9088 17.7537 18.6104 17.2694C18.9933 14.2059 20.1139 13.2374 21.595 13.2374C23.0591 13.2374 24.1966 14.4087 24.1966 16.1206C24.1966 17.8325 23.0591 19.0039 21.595 19.0039Z" fill="white"/>
</g>
<defs>
<clipPath id="clip0_686_6877">
<rect width="32" height="32" fill="white"/>
</clipPath>
</defs>
</svg>
